<?xml version="1.0" encoding="utf-8"?>
<!-- Generator: Adobe Illustrator 23.0.0, SVG Export Plug-In . SVG Version: 6.00 Build 0)  -->
<svg version="1.1" xmlns="http://www.w3.org/2000/svg" xmlns:xlink="http://www.w3.org/1999/xlink" x="0px" y="0px"
	 viewBox="0 0 205.2 37.5" style="enable-background:new 0 0 205.2 37.5;" xml:space="preserve">
<style type="text/css">
	.st0{display:none;}
	.st1{display:inline;}
	.st2{display:inline;fill:#FFFFFF;}
	.st3{display:inline;fill:none;stroke:#000000;stroke-width:8;stroke-linecap:round;stroke-miterlimit:10;}
	.st4{fill:#FFC0CB;stroke:#000000;stroke-width:5.000000e-02;stroke-miterlimit:10;}
	.st5{fill:#FFC0CB;stroke:#DB7093;stroke-width:0.15;stroke-miterlimit:10;}
</style>
<g id="Layer_1" class="st0">
	<g class="st1">
		<g id="Layer_4" class="st0">
			<path class="st2" d="M102,17.9c-3.7-0.7-6-1.3-7.3-2.7c-1.4-1.4-2-3.6-2.7-7.3c-0.1-0.3-0.3-0.5-0.6-0.5c-0.3,0-0.6,0.2-0.6,0.5
				c-0.7,3.7-1.3,6-2.7,7.3c-1.4,1.4-3.6,2-7.3,2.7c-0.3,0.1-0.5,0.3-0.5,0.6c0,0.3,0.2,0.6,0.5,0.6c3.7,0.7,6,1.3,7.3,2.7
				c1.4,1.4,2,3.6,2.7,7.3c0.1,0.3,0.3,0.5,0.6,0.5c0.3,0,0.6-0.2,0.6-0.5c0.7-3.7,1.3-6,2.7-7.3c1.4-1.4,3.6-2,7.3-2.7
				c0.3-0.1,0.5-0.3,0.5-0.6S102.3,18,102,17.9z"/>
		</g>
		<g class="st0">
			<path class="st3" d="M-81.1-45.6c6.7-9.8,10.6-21.7,10.6-34.5c0-33.8-27.4-61.3-61.3-61.3s-61.3,27.4-61.3,61.3
				c0,33.8,27.4,61.3,61.3,61.3c14.6,0,28-5.1,38.6-13.7"/>
		</g>
		<g>
			<path d="M8.6,12.3v12c0,0.6,0.1,1,0.3,1.2s0.5,0.3,0.9,0.3c0.3,0,0.6-0.1,0.8-0.2s0.4-0.3,0.6-0.6c0.2-0.2,0.4-0.5,0.5-0.8
				l0.5,0.2c-0.2,0.3-0.4,0.7-0.6,1.1c-0.2,0.4-0.5,0.8-0.9,1.1c-0.4,0.4-0.8,0.6-1.4,0.9C8.7,28,8,28.1,7.2,28.1
				c-0.5,0-0.9-0.1-1.4-0.2c-0.4-0.1-0.8-0.4-1.2-0.7c-0.3-0.3-0.6-0.7-0.8-1.1s-0.3-1-0.3-1.6V12.3H1.7v-1.2C2,11.1,2.4,11,3,10.9
				c0.5-0.2,1.1-0.4,1.7-0.8s1.1-0.9,1.6-1.5s0.8-1.4,1-2.3h1.3v4.8h2.7c0.9,0,1.3-0.1,1.3-0.4c0-0.1-0.1-0.2-0.2-0.2
				c-0.1,0-0.2-0.1-0.4-0.1c-0.1-0.1-0.3-0.1-0.4-0.3c-0.1-0.1-0.2-0.3-0.2-0.5c0-0.3,0.1-0.5,0.3-0.7s0.4-0.3,0.7-0.3
				c0.2,0,0.4,0,0.5,0.1s0.3,0.2,0.4,0.3s0.2,0.3,0.2,0.5s0.1,0.3,0.1,0.5c0,0.7-0.2,1.3-0.6,1.7c-0.4,0.4-1.1,0.6-2,0.6
				C11,12.3,8.6,12.3,8.6,12.3z"/>
			<path d="M19.3,12.3c-0.4,0-0.7,0-1,0.1s-0.6,0.2-0.8,0.3c-0.2,0.1-0.4,0.3-0.5,0.4c-0.1,0.2-0.2,0.3-0.2,0.4
				c0,0.2,0.1,0.3,0.3,0.4c0.2,0.1,0.4,0.2,0.6,0.2c0.2,0.1,0.4,0.2,0.6,0.4s0.3,0.4,0.3,0.8c0,0.2,0,0.4-0.1,0.6s-0.2,0.4-0.4,0.5
				c-0.2,0.1-0.3,0.3-0.6,0.3C17,16.9,16.8,17,16.6,17c-0.6,0-1.1-0.2-1.5-0.6s-0.6-1-0.6-1.6c0-0.7,0.2-1.2,0.5-1.7
				s0.8-0.9,1.4-1.2c0.6-0.3,1.2-0.5,1.9-0.7c0.7-0.1,1.4-0.2,2.1-0.2c0.8,0,1.7,0.1,2.4,0.3c0.8,0.2,1.5,0.5,2,0.9
				c0.6,0.4,1.1,0.9,1.4,1.5c0.4,0.6,0.5,1.4,0.5,2.2v9.2c0,0.1,0,0.2,0,0.3c0,0.1,0,0.2,0.1,0.3s0.1,0.2,0.2,0.2
				c0.1,0.1,0.2,0.1,0.4,0.1c0.2,0,0.4-0.1,0.5-0.2s0.3-0.3,0.4-0.4l0.4,0.3c-0.2,0.2-0.4,0.5-0.6,0.7c-0.2,0.3-0.5,0.5-0.8,0.8
				c-0.3,0.2-0.7,0.4-1.1,0.6S25.3,28,24.7,28c-0.7,0-1.3-0.2-1.8-0.6s-0.9-1-1-1.9c-0.3,0.5-0.7,0.9-1.1,1.2
				c-0.4,0.3-0.8,0.6-1.1,0.8c-0.4,0.2-0.8,0.3-1.2,0.4C18.1,28,17.7,28,17.3,28c-0.5,0-1-0.1-1.5-0.2c-0.5-0.2-0.9-0.4-1.3-0.8
				s-0.7-0.8-0.9-1.4s-0.3-1.3-0.3-2.1c0-1,0.2-1.8,0.6-2.4c0.4-0.6,0.9-1.2,1.5-1.6s1.4-0.8,2.2-1.1c0.8-0.3,1.6-0.6,2.5-1
				c0.6-0.2,1.1-0.6,1.4-1.1s0.4-1,0.4-1.5c0-0.8-0.2-1.4-0.7-1.9S20.1,12.3,19.3,12.3z M21.9,19.4c0-0.3-0.1-0.5-0.3-0.6
				c-0.2-0.1-0.4-0.2-0.7-0.2c-0.4,0-0.7,0.1-1.1,0.3c-0.3,0.2-0.6,0.4-0.9,0.8c-0.3,0.3-0.5,0.8-0.6,1.2c-0.2,0.5-0.2,1.1-0.2,1.7
				s0,1.2,0.1,1.6s0.2,0.7,0.4,1c0.2,0.2,0.3,0.4,0.5,0.5s0.4,0.1,0.7,0.1c0.3,0,0.5-0.1,0.8-0.2s0.5-0.3,0.7-0.6
				c0.2-0.2,0.3-0.5,0.4-0.8s0.2-0.6,0.2-0.8V19.4z"/>
			<path d="M40.7,19.7c0-1.4-0.1-2.5-0.2-3.3c-0.1-0.8-0.3-1.4-0.5-1.9c-0.2-0.4-0.4-0.7-0.7-0.8s-0.5-0.2-0.8-0.2s-0.6,0.1-0.8,0.3
				s-0.5,0.4-0.6,0.6s-0.3,0.4-0.5,0.7c-0.1,0.2-0.2,0.4-0.3,0.5v10.9c0,0.1,0,0.3-0.1,0.5c0,0.2-0.1,0.4-0.3,0.6s-0.4,0.3-0.7,0.5
				s-0.8,0.2-1.4,0.2s-1-0.1-1.4-0.2c-0.3-0.1-0.6-0.3-0.8-0.5c-0.2-0.2-0.3-0.4-0.3-0.6s-0.1-0.4-0.1-0.5V13.8
				c0-0.3-0.1-0.6-0.2-0.8s-0.4-0.4-0.7-0.4c-0.2,0-0.3,0-0.5,0.1c-0.1,0.1-0.3,0.2-0.4,0.3l-0.3-0.4c0.2-0.2,0.5-0.4,0.8-0.6
				c0.3-0.2,0.6-0.4,1-0.5c0.4-0.2,0.7-0.3,1.2-0.4s0.8-0.1,1.3-0.1c0.7,0,1.3,0.1,1.6,0.4c0.4,0.2,0.7,0.5,0.9,0.8s0.3,0.7,0.3,1
				s0.1,0.6,0.1,0.9c0.4-0.6,0.9-1.1,1.4-1.5c0.2-0.2,0.4-0.4,0.7-0.6c0.3-0.2,0.5-0.4,0.8-0.5s0.6-0.3,0.9-0.4
				c0.3-0.1,0.6-0.1,1-0.1c0.7,0,1.4,0.1,2,0.4s1,0.8,1.4,1.4c0.4,0.7,0.7,1.5,0.9,2.6s0.3,2.4,0.3,4.1c0,1.6-0.1,2.9-0.4,4.1
				s-0.7,2.1-1.1,3c-0.5,0.8-1,1.5-1.5,2c-0.6,0.5-1.2,0.9-1.7,1.2c-0.6,0.3-1.1,0.5-1.7,0.6c-0.5,0.1-1,0.2-1.4,0.2l-0.2-0.7
				c0.3-0.1,0.6-0.2,0.9-0.4c0.3-0.2,0.5-0.4,0.8-0.7c0.2-0.3,0.4-0.7,0.6-1.2c0.2-0.5,0.3-1.1,0.4-1.8c0.1-0.7,0.2-1.6,0.3-2.6
				S40.7,21.1,40.7,19.7z"/>
			<path d="M48.4,17.6c0-1.1,0.2-2.1,0.6-2.9c0.4-0.8,0.9-1.5,1.6-2.1c0.7-0.6,1.4-1,2.3-1.3s1.8-0.4,2.7-0.4s1.8,0.1,2.7,0.4
				c0.8,0.2,1.6,0.6,2.2,1.2c0.2-0.3,0.4-0.6,0.5-1c0.1-0.3,0.2-0.7,0.2-1c0-0.5-0.1-0.8-0.4-1.1S60.2,9,59.9,9V8.5
				c0.2-0.1,0.5-0.1,0.6-0.2c0.2-0.1,0.4-0.1,0.5-0.1c0.2,0,0.3-0.1,0.5-0.1s0.3,0,0.5,0c0.5,0,0.9,0.2,1.2,0.5s0.4,0.7,0.4,1.3
				c0,0.3-0.1,0.6-0.2,1c-0.2,0.3-0.3,0.6-0.6,0.9c-0.2,0.3-0.5,0.6-0.8,0.8c-0.3,0.3-0.5,0.5-0.8,0.7c0.5,0.5,0.8,1.1,1.1,1.8
				c0.2,0.7,0.4,1.5,0.4,2.4c0,1.1-0.2,2.1-0.6,3c-0.4,0.9-0.9,1.6-1.6,2.2c-0.7,0.6-1.4,1-2.3,1.3c-0.9,0.3-1.8,0.4-2.7,0.4
				c-0.6,0-1.1,0-1.6-0.1s-1-0.2-1.5-0.4c-0.2,0.1-0.3,0.3-0.4,0.5s-0.2,0.4-0.2,0.7c0,0.4,0.2,0.7,0.5,0.9c0.3,0.2,0.8,0.3,1.4,0.4
				s1.2,0.1,2,0.2s1.5,0.1,2.2,0.1s1.5,0.1,2.2,0.3s1.4,0.4,2,0.7s1,0.7,1.4,1.3c0.3,0.5,0.5,1.2,0.5,2.1c0,0.6-0.1,1.2-0.4,1.7
				c-0.3,0.5-0.6,0.9-1,1.3c-0.4,0.4-1,0.7-1.5,1c-0.6,0.3-1.2,0.5-1.8,0.7s-1.3,0.3-2,0.4s-1.3,0.1-1.9,0.1c-1.1,0-2.1-0.1-3-0.2
				c-0.9-0.1-1.6-0.3-2.3-0.5c-0.6-0.2-1.1-0.5-1.4-0.9c-0.3-0.4-0.5-0.8-0.5-1.4c0-0.4,0.1-0.7,0.3-1s0.4-0.6,0.7-0.9
				s0.6-0.5,1-0.7s0.7-0.4,1.1-0.6c-0.5-0.2-1-0.6-1.4-1c-0.4-0.5-0.5-1.1-0.5-1.8c0-0.4,0.1-0.8,0.2-1.1s0.3-0.7,0.5-0.9
				c0.2-0.3,0.5-0.5,0.7-0.8s0.5-0.4,0.8-0.6c-0.4-0.3-0.9-0.6-1.2-1c-0.4-0.4-0.7-0.8-1-1.3s-0.5-1-0.6-1.6
				C48.4,18.9,48.4,18.3,48.4,17.6z M60.1,32c0-0.3-0.1-0.6-0.4-0.9c-0.3-0.2-0.6-0.4-1.1-0.5c-0.4-0.1-0.9-0.2-1.5-0.3
				c-0.6-0.1-1.1-0.1-1.7-0.2S54.3,30,53.7,30c-0.5,0-1-0.1-1.4-0.1c-0.2,0.2-0.4,0.3-0.7,0.5c-0.2,0.2-0.4,0.4-0.6,0.6
				c-0.2,0.2-0.3,0.4-0.4,0.7c-0.1,0.3-0.1,0.5-0.1,0.7c0,0.4,0.1,0.8,0.4,1c0.2,0.3,0.6,0.5,1,0.7s0.9,0.3,1.4,0.3
				c0.5,0.1,1.1,0.1,1.7,0.1c0.8,0,1.5-0.1,2.1-0.2s1.2-0.3,1.6-0.6s0.8-0.5,1-0.8C60,32.7,60.1,32.4,60.1,32z M57.7,17.5
				c0-0.6,0-1.2-0.1-1.8c-0.1-0.6-0.2-1.1-0.3-1.6c-0.2-0.5-0.4-0.8-0.7-1.1s-0.6-0.4-1.1-0.4c-0.4,0-0.8,0.1-1.1,0.4
				c-0.3,0.3-0.5,0.7-0.7,1.2s-0.3,1-0.3,1.6s-0.1,1.2-0.1,1.9c0,0.6,0,1.3,0.1,1.9s0.2,1.2,0.3,1.7c0.2,0.5,0.4,0.9,0.7,1.2
				c0.3,0.3,0.6,0.4,1.1,0.4c0.4,0,0.8-0.2,1.1-0.5s0.5-0.7,0.7-1.2s0.3-1.1,0.3-1.7C57.6,18.8,57.7,18.1,57.7,17.5z"/>
			<path d="M71.1,26.4c0,0.1,0,0.3-0.1,0.5s-0.2,0.4-0.3,0.6c-0.2,0.2-0.4,0.3-0.8,0.4c-0.3,0.1-0.8,0.2-1.4,0.2s-1-0.1-1.4-0.2
				c-0.3-0.1-0.6-0.3-0.7-0.5c-0.2-0.2-0.3-0.4-0.3-0.6S66,26.4,66,26.3v-21c0-0.3-0.1-0.6-0.2-0.8c-0.1-0.2-0.4-0.4-0.7-0.4
				c-0.2,0-0.3,0-0.5,0.1c-0.1,0.1-0.3,0.1-0.4,0.3l-0.3-0.4c0.2-0.2,0.5-0.4,0.8-0.6c0.3-0.2,0.6-0.4,1-0.5
				c0.4-0.2,0.8-0.3,1.2-0.4c0.4-0.1,0.8-0.1,1.3-0.1c0.7,0,1.3,0.1,1.6,0.3s0.7,0.4,0.9,0.7C70.9,3.8,71,4.1,71,4.4
				s0.1,0.6,0.1,0.8V26.4z"/>
			<path d="M79.4,20.4c0,0.3,0.1,0.7,0.2,1.1s0.3,0.8,0.4,1.2c0.2,0.4,0.4,0.8,0.7,1.2c0.3,0.4,0.6,0.7,1,1s0.8,0.5,1.2,0.7
				c0.5,0.2,1,0.3,1.5,0.3c0.4,0,0.7,0,1.1-0.1s0.6-0.2,0.9-0.4c0.3-0.2,0.6-0.3,0.8-0.5c0.3-0.2,0.5-0.4,0.8-0.6l0.4,0.4
				c-0.3,0.3-0.6,0.7-1,1.1s-0.9,0.8-1.4,1.1c-0.6,0.4-1.2,0.6-1.9,0.9c-0.7,0.2-1.6,0.3-2.5,0.3s-1.9-0.2-2.8-0.5s-1.7-0.9-2.4-1.5
				c-0.7-0.7-1.3-1.5-1.7-2.6c-0.4-1-0.6-2.2-0.6-3.6c0-1,0.1-1.9,0.4-2.7c0.2-0.8,0.6-1.6,1-2.2s0.9-1.2,1.5-1.7s1.2-0.9,1.8-1.2
				c0.6-0.3,1.3-0.6,1.9-0.7c0.7-0.2,1.3-0.3,1.9-0.3c0.8,0,1.5,0.1,2.1,0.3s1.1,0.4,1.5,0.7s0.7,0.6,0.9,1s0.3,0.8,0.3,1.2
				c0,0.5-0.1,1-0.4,1.4s-0.7,0.8-1.2,1.1L79.4,20.4z M82.7,17.1c0.1-0.1,0.3-0.2,0.4-0.3c0.1-0.1,0.2-0.2,0.2-0.3s0.1-0.3,0.1-0.4
				c0-0.2,0-0.4,0-0.6c0-0.3,0-0.6-0.1-0.9S83.1,14,83,13.7c-0.1-0.3-0.3-0.5-0.5-0.7s-0.5-0.3-0.8-0.3c-0.4,0-0.7,0.1-1,0.4
				S80.2,13.6,80,14s-0.3,0.8-0.4,1.3s-0.2,0.9-0.2,1.4c-0.1,0.5-0.1,0.9-0.1,1.4c0,0.4,0,0.8,0,1.1L82.7,17.1z"/>
			<path d="M95.9,12.3c-0.3,0-0.5,0-0.7,0.1s-0.4,0.2-0.6,0.3s-0.3,0.3-0.4,0.6C94.1,13.4,94,13.7,94,14c0,0.4,0.2,0.8,0.5,1.3
				c0.3,0.4,0.7,0.9,1.2,1.3c0.5,0.5,1,0.9,1.5,1.4s1,1,1.5,1.5s0.8,1.1,1.2,1.7c0.3,0.6,0.5,1.3,0.5,2c0,0.8-0.1,1.5-0.4,2.1
				s-0.6,1.1-1.1,1.5s-1.1,0.7-1.8,1s-1.5,0.3-2.3,0.3c-0.7,0-1.4-0.1-2-0.3c-0.6-0.2-1.1-0.5-1.6-0.8s-0.9-0.6-1.2-1
				s-0.6-0.7-0.8-0.9l0.6-0.4c0.1,0.2,0.3,0.3,0.5,0.5s0.5,0.4,0.7,0.5c0.3,0.2,0.6,0.3,0.9,0.4s0.6,0.2,0.9,0.2
				c0.8,0,1.4-0.2,1.9-0.6s0.7-0.9,0.7-1.7c0-0.4-0.1-0.8-0.4-1.3c-0.3-0.4-0.6-0.9-1-1.4s-0.9-0.9-1.3-1.4c-0.5-0.5-0.9-1-1.3-1.5
				s-0.8-1.1-1-1.6S90,15.6,90,15c0-0.7,0.1-1.3,0.4-1.8s0.6-0.9,1.1-1.3s1-0.6,1.6-0.8s1.2-0.3,1.8-0.3c0.7,0,1.4,0.1,2,0.2
				c0.6,0.1,1.1,0.3,1.5,0.6s0.8,0.6,1,1s0.4,0.9,0.4,1.4c0,0.4-0.1,0.8-0.4,1.1s-0.7,0.5-1.1,0.5c-0.5,0-0.8-0.1-1.1-0.3
				s-0.4-0.5-0.4-0.8c0-0.2,0.1-0.4,0.2-0.5s0.2-0.2,0.4-0.3c0.1-0.1,0.3-0.2,0.4-0.2c0.1-0.1,0.2-0.1,0.2-0.2
				c0-0.3-0.2-0.5-0.5-0.7C96.8,12.3,96.4,12.3,95.9,12.3z"/>
		</g>
	</g>
	<g class="st1">
		<g>
			<path d="M129.6,12.3v12.1c0,0.6,0.1,1,0.3,1.2s0.5,0.3,0.9,0.3c0.3,0,0.6-0.1,0.8-0.2s0.4-0.3,0.6-0.6c0.2-0.2,0.4-0.5,0.5-0.8
				l0.5,0.2c-0.2,0.3-0.4,0.7-0.6,1.1c-0.2,0.4-0.5,0.8-0.9,1.2s-0.8,0.7-1.4,0.9s-1.3,0.4-2.1,0.4c-0.5,0-0.9-0.1-1.4-0.2
				c-0.4-0.1-0.8-0.4-1.2-0.7s-0.6-0.7-0.8-1.1c-0.2-0.5-0.3-1-0.3-1.6V12.3h-1.8v-1.2c0.3,0,0.7-0.1,1.3-0.2
				c0.5-0.2,1.1-0.4,1.7-0.8c0.6-0.4,1.1-0.9,1.6-1.5s0.8-1.4,1-2.3h1.3v4.8h2.7c0.9,0,1.3-0.1,1.3-0.4c0-0.1-0.1-0.2-0.2-0.2
				c-0.1,0-0.2-0.1-0.4-0.1c-0.1-0.1-0.3-0.1-0.4-0.3c-0.1-0.1-0.2-0.3-0.2-0.5c0-0.3,0.1-0.5,0.3-0.7s0.4-0.3,0.7-0.3
				c0.2,0,0.4,0,0.5,0.1s0.3,0.2,0.4,0.3c0.1,0.1,0.2,0.3,0.2,0.5s0.1,0.3,0.1,0.5c0,0.7-0.2,1.3-0.6,1.7c-0.4,0.4-1.1,0.6-2,0.6
				C132,12.3,129.6,12.3,129.6,12.3z"/>
			<path d="M155.4,16.1c0-0.7,0-1.3-0.1-1.8s-0.2-0.9-0.3-1.2s-0.2-0.6-0.3-0.8s-0.1-0.4-0.1-0.6c0-0.2,0.1-0.3,0.2-0.4
				c0.1-0.1,0.3-0.2,0.5-0.3s0.4-0.1,0.6-0.2s0.3,0,0.5,0c0.3,0,0.5,0,0.7,0.1c0.1,0.1,0.3,0.3,0.3,0.5c0.1,0.3,0.2,0.7,0.2,1.2
				s0.1,1.1,0.1,1.7c0,0.8,0,1.8-0.1,2.8s-0.3,2-0.5,3s-0.5,2-0.8,2.9s-0.7,1.8-1.2,2.5s-1,1.3-1.6,1.8c-0.6,0.4-1.3,0.7-2.1,0.7
				c-0.6,0-1.2-0.1-1.6-0.4s-0.9-0.6-1.3-1s-0.7-0.9-1-1.5s-0.5-1.2-0.8-1.8c-0.3,0.7-0.5,1.3-0.9,1.9c-0.3,0.6-0.7,1.1-1.1,1.5
				c-0.4,0.4-0.8,0.8-1.3,1s-1,0.4-1.6,0.4c-0.7,0-1.3-0.2-1.8-0.4c-0.5-0.3-1-0.7-1.4-1.2s-0.8-1.1-1-1.8c-0.3-0.7-0.5-1.4-0.8-2.2
				c-0.2-0.8-0.4-1.5-0.5-2.4s-0.3-1.6-0.4-2.3c-0.1-0.8-0.2-1.5-0.2-2.1c-0.1-0.7-0.1-1.2-0.2-1.7c-0.1-0.4-0.2-0.8-0.3-1
				s-0.4-0.4-0.7-0.4c-0.2,0-0.3,0-0.5,0.1s-0.3,0.2-0.4,0.3l-0.3-0.4c0.3-0.2,0.5-0.4,0.8-0.6c0.3-0.2,0.6-0.4,1-0.5
				c0.4-0.2,0.7-0.3,1.2-0.4s0.8-0.1,1.3-0.1c0.7,0,1.2,0.1,1.6,0.3c0.4,0.2,0.7,0.5,1,0.8c0.2,0.3,0.4,0.7,0.5,1.1
				c0.1,0.4,0.2,0.7,0.2,1c0.2,1.6,0.4,3.1,0.6,4.3s0.4,2.3,0.6,3.1s0.5,1.5,0.7,1.9c0.3,0.4,0.6,0.6,0.9,0.6c0.2,0,0.5-0.1,0.7-0.3
				c0.2-0.2,0.4-0.5,0.6-0.8c0.2-0.3,0.4-0.8,0.6-1.3c0.2-0.5,0.3-1,0.5-1.6c-0.1-0.6-0.2-1.2-0.3-1.8c-0.1-0.6-0.1-1.2-0.2-1.7
				c-0.1-0.5-0.1-1-0.2-1.5c-0.1-0.5-0.1-0.9-0.2-1.2c-0.2-1-0.1-1.8,0.3-2.3c0.4-0.5,1.1-0.8,2.1-0.8c0.5,0,0.9,0,1.2,0.1
				s0.6,0.2,0.8,0.5c0.2,0.2,0.4,0.5,0.5,0.9s0.2,0.9,0.3,1.5c0.2,1.6,0.4,3.1,0.6,4.4c0.2,1.3,0.4,2.4,0.6,3.2s0.5,1.6,0.7,2
				s0.6,0.7,0.9,0.7c0.4,0,0.7-0.2,1-0.7s0.6-1.1,0.8-1.8c0.2-0.8,0.4-1.6,0.5-2.6S155.4,17.1,155.4,16.1z"/>
			<path d="M165.9,26.4c0,0.1,0,0.3-0.1,0.5c0,0.2-0.2,0.4-0.3,0.6s-0.4,0.3-0.8,0.5c-0.3,0.1-0.8,0.2-1.4,0.2s-1-0.1-1.4-0.2
				c-0.3-0.1-0.6-0.3-0.7-0.5c-0.2-0.2-0.3-0.4-0.3-0.6s-0.1-0.4-0.1-0.5V13.8c0-0.3-0.1-0.6-0.2-0.8c-0.1-0.2-0.4-0.4-0.7-0.4
				c-0.2,0-0.3,0-0.5,0.1c-0.1,0.1-0.3,0.2-0.4,0.3l-0.3-0.4c0.3-0.2,0.5-0.4,0.8-0.6c0.3-0.2,0.6-0.4,1-0.5
				c0.4-0.2,0.7-0.3,1.2-0.4c0.4-0.1,0.8-0.1,1.3-0.1c0.7,0,1.3,0.1,1.6,0.3c0.4,0.2,0.7,0.4,0.9,0.7s0.3,0.6,0.3,0.9
				s0.1,0.6,0.1,0.8L165.9,26.4L165.9,26.4z M160.3,7.2c0-0.3,0.1-0.6,0.2-0.9c0.1-0.3,0.3-0.5,0.6-0.7c0.2-0.2,0.5-0.4,0.8-0.5
				s0.7-0.2,1.1-0.2c0.4,0,0.7,0.1,1,0.2s0.6,0.3,0.8,0.5s0.4,0.4,0.6,0.7c0.1,0.3,0.2,0.6,0.2,0.9s-0.1,0.6-0.2,0.9
				c-0.1,0.3-0.3,0.5-0.6,0.7c-0.2,0.2-0.5,0.4-0.8,0.5s-0.7,0.2-1,0.2c-0.4,0-0.7-0.1-1.1-0.2s-0.6-0.3-0.8-0.5s-0.4-0.4-0.6-0.7
				C160.4,7.8,160.3,7.5,160.3,7.2z"/>
			<path d="M175.2,12.2c-0.3,0-0.5,0-0.7,0.1s-0.4,0.2-0.6,0.3s-0.3,0.3-0.4,0.6s-0.1,0.5-0.1,0.8c0,0.4,0.2,0.8,0.5,1.3
				c0.3,0.4,0.7,0.9,1.2,1.3c0.5,0.5,1,0.9,1.5,1.4s1,1,1.5,1.5s0.8,1.1,1.2,1.7c0.3,0.6,0.5,1.3,0.5,2c0,0.8-0.1,1.5-0.4,2.1
				s-0.6,1.1-1.1,1.6c-0.5,0.4-1.1,0.7-1.8,1c-0.7,0.2-1.5,0.3-2.3,0.3s-1.4-0.1-2-0.3c-0.6-0.2-1.2-0.5-1.6-0.8
				c-0.5-0.3-0.9-0.6-1.2-1c-0.3-0.3-0.6-0.7-0.8-0.9l0.6-0.4c0.1,0.2,0.3,0.3,0.5,0.5s0.5,0.4,0.7,0.5s0.6,0.3,0.9,0.4
				s0.6,0.2,0.9,0.2c0.8,0,1.4-0.2,1.9-0.6s0.8-0.9,0.8-1.7c0-0.4-0.1-0.8-0.4-1.3c-0.3-0.4-0.6-0.9-1-1.4s-0.9-1-1.3-1.5
				c-0.5-0.5-0.9-1-1.3-1.6c-0.4-0.5-0.8-1.1-1-1.6c-0.3-0.6-0.4-1.2-0.4-1.8c0-0.7,0.1-1.3,0.4-1.8c0.3-0.5,0.6-0.9,1.1-1.3
				s1-0.6,1.6-0.8s1.2-0.3,1.8-0.3c0.7,0,1.4,0.1,2,0.2c0.6,0.1,1.1,0.3,1.5,0.6s0.8,0.6,1,1s0.4,0.9,0.4,1.4c0,0.4-0.1,0.8-0.4,1.1
				c-0.3,0.3-0.7,0.5-1.1,0.5c-0.5,0-0.8-0.1-1.1-0.3c-0.2-0.2-0.4-0.5-0.4-0.8c0-0.2,0.1-0.4,0.2-0.5c0.1-0.1,0.2-0.2,0.4-0.3
				s0.3-0.2,0.4-0.2c0.1-0.1,0.2-0.1,0.2-0.2c0-0.3-0.2-0.5-0.5-0.7C176.2,12.3,175.7,12.2,175.2,12.2z"/>
			<path d="M187.6,12.3v12.1c0,0.6,0.1,1,0.3,1.2s0.5,0.3,0.9,0.3c0.3,0,0.6-0.1,0.8-0.2s0.4-0.3,0.6-0.6c0.2-0.2,0.4-0.5,0.5-0.8
				l0.5,0.2c-0.2,0.3-0.4,0.7-0.6,1.1c-0.2,0.4-0.5,0.8-0.9,1.2s-0.8,0.7-1.4,0.9s-1.3,0.4-2.1,0.4c-0.5,0-0.9-0.1-1.4-0.2
				c-0.4-0.1-0.8-0.4-1.2-0.7s-0.6-0.7-0.8-1.1c-0.2-0.5-0.3-1-0.3-1.6V12.3h-1.8v-1.2c0.3,0,0.7-0.1,1.3-0.2
				c0.5-0.2,1.1-0.4,1.7-0.8c0.6-0.4,1.1-0.9,1.6-1.5s0.8-1.4,1-2.3h1.3v4.8h2.7c0.9,0,1.3-0.1,1.3-0.4c0-0.1-0.1-0.2-0.2-0.2
				c-0.1,0-0.2-0.1-0.4-0.1c-0.1-0.1-0.3-0.1-0.4-0.3c-0.1-0.1-0.2-0.3-0.2-0.5c0-0.3,0.1-0.5,0.3-0.7s0.4-0.3,0.7-0.3
				c0.2,0,0.4,0,0.5,0.1s0.3,0.2,0.4,0.3c0.1,0.1,0.2,0.3,0.2,0.5s0.1,0.3,0.1,0.5c0,0.7-0.2,1.3-0.6,1.7c-0.4,0.4-1.1,0.6-2,0.6
				C190,12.3,187.6,12.3,187.6,12.3z"/>
			<path d="M198.8,12.2c-0.3,0-0.5,0-0.7,0.1s-0.4,0.2-0.6,0.3s-0.3,0.3-0.4,0.6S197,13.7,197,14c0,0.4,0.2,0.8,0.5,1.3
				c0.3,0.4,0.7,0.9,1.2,1.3c0.5,0.5,1,0.9,1.5,1.4s1,1,1.5,1.5s0.8,1.1,1.2,1.7c0.3,0.6,0.5,1.3,0.5,2c0,0.8-0.1,1.5-0.4,2.1
				s-0.6,1.1-1.1,1.6c-0.5,0.4-1.1,0.7-1.8,1c-0.7,0.2-1.5,0.3-2.3,0.3s-1.4-0.1-2-0.3c-0.6-0.2-1.2-0.5-1.6-0.8
				c-0.5-0.3-0.9-0.6-1.2-1c-0.3-0.3-0.6-0.7-0.8-0.9l0.6-0.4c0.1,0.2,0.3,0.3,0.5,0.5s0.5,0.4,0.7,0.5s0.6,0.3,0.9,0.4
				s0.6,0.2,0.9,0.2c0.8,0,1.4-0.2,1.9-0.6s0.8-0.9,0.8-1.7c0-0.4-0.1-0.8-0.4-1.3c-0.3-0.4-0.6-0.9-1-1.4s-0.9-1-1.3-1.5
				c-0.5-0.5-0.9-1-1.3-1.6c-0.4-0.5-0.8-1.1-1-1.6c-0.3-0.6-0.4-1.2-0.4-1.8c0-0.7,0.1-1.3,0.4-1.8c0.3-0.5,0.6-0.9,1.1-1.3
				s1-0.6,1.6-0.8s1.2-0.3,1.8-0.3c0.7,0,1.4,0.1,2,0.2c0.6,0.1,1.1,0.3,1.5,0.6s0.8,0.6,1,1s0.4,0.9,0.4,1.4c0,0.4-0.1,0.8-0.4,1.1
				c-0.3,0.3-0.7,0.5-1.1,0.5c-0.5,0-0.8-0.1-1.1-0.3c-0.2-0.2-0.4-0.5-0.4-0.8c0-0.2,0.1-0.4,0.2-0.5c0.1-0.1,0.2-0.2,0.4-0.3
				s0.3-0.2,0.4-0.2c0.1-0.1,0.2-0.1,0.2-0.2c0-0.3-0.2-0.5-0.5-0.7C199.8,12.3,199.4,12.2,198.8,12.2z"/>
		</g>
	</g>
	<g id="Layer_3" class="st1">
		<g>
			<path class="st4" d="M112.4,17.7c-0.4,0-0.8,0-1.2,0.1c-0.4,0.1-0.7,0.3-0.9,0.5c-0.3,0.2-0.4,0.5-0.6,0.9
				c-0.1,0.4-0.2,0.8-0.2,1.3c0,0.2,0,0.4,0,0.6s0.1,0.4,0.1,0.6c0.1,0.2,0.1,0.4,0.2,0.6s0.2,0.3,0.3,0.5s0.3,0.2,0.5,0.3
				c0.2,0.1,0.4,0.1,0.6,0.1c0.3,0,0.5-0.1,0.7-0.2s0.4-0.3,0.5-0.5s0.2-0.5,0.3-0.7c0.1-0.3,0.1-0.5,0.1-0.8c0-0.2,0-0.4-0.1-0.5
				c0-0.2-0.1-0.3-0.2-0.4s-0.2-0.2-0.3-0.3s-0.3-0.1-0.4-0.1c-0.2,0-0.3,0-0.4,0.1s-0.2,0.1-0.2,0.3c0,0.1,0,0.1,0.1,0.1
				s0.1,0.1,0.2,0.1s0.2,0.1,0.2,0.2c0.1,0.1,0.1,0.2,0.1,0.3c0,0.2-0.1,0.3-0.2,0.4s-0.3,0.2-0.5,0.2c-0.1,0-0.2,0-0.3-0.1
				c-0.1-0.1-0.2-0.1-0.2-0.2c-0.1-0.1-0.1-0.2-0.1-0.3c0-0.1,0-0.2,0-0.3c0-0.3,0.1-0.5,0.2-0.7s0.3-0.3,0.5-0.4s0.5-0.2,0.8-0.2
				c0.3-0.1,0.6-0.1,0.9-0.1s0.6-0.1,0.9-0.1s0.5-0.1,0.8-0.2c0.2-0.1,0.4-0.2,0.5-0.4s0.2-0.4,0.2-0.6c0-0.1,0-0.2-0.1-0.3
				c-0.1-0.1-0.1-0.1-0.2-0.1s-0.2,0-0.3,0c-0.1,0-0.1,0-0.2,0s-0.1,0-0.1,0.1c0,0-0.1,0-0.1,0.1s-0.1,0-0.2,0s-0.2,0-0.3-0.1
				c-0.1-0.1-0.1-0.2-0.1-0.4c0-0.2,0-0.3,0.1-0.5s0.2-0.2,0.3-0.3s0.2-0.1,0.3-0.2c0.1,0,0.2-0.1,0.4-0.1c0.2,0,0.4,0,0.6,0.1
				s0.3,0.2,0.4,0.3c0.1,0.1,0.2,0.3,0.3,0.4s0.1,0.3,0.1,0.5c0,0.3,0,0.6-0.1,0.9s-0.2,0.5-0.4,0.6s-0.4,0.3-0.6,0.4
				s-0.5,0.2-0.8,0.3c0.1,0.2,0.3,0.4,0.3,0.6s0.1,0.5,0.1,0.9s-0.1,0.7-0.2,1.1c-0.2,0.4-0.4,0.7-0.7,1s-0.7,0.5-1.2,0.7
				s-1.1,0.3-1.7,0.3c-0.5,0-1.1-0.1-1.5-0.2c-0.5-0.1-0.9-0.4-1.2-0.6c-0.3-0.3-0.6-0.6-0.8-1s-0.3-0.9-0.3-1.4c0-0.4,0-0.7,0.2-1
				s0.2-0.6,0.4-0.8c0.2-0.2,0.4-0.4,0.6-0.6s0.4-0.3,0.6-0.4s0.4-0.2,0.6-0.3s0.4-0.1,0.6-0.1c-0.1,0-0.1,0-0.3-0.1
				c-0.1,0-0.2-0.1-0.3-0.2c-0.1-0.1-0.2-0.1-0.4-0.2s-0.2-0.2-0.3-0.3c-0.1-0.1-0.2-0.3-0.2-0.4s-0.1-0.4-0.1-0.6
				c0-0.3,0.1-0.6,0.2-0.8s0.3-0.4,0.5-0.6s0.5-0.3,0.8-0.4c0.3-0.1,0.6-0.1,1-0.1s0.8,0,1.1,0.1s0.5,0.2,0.7,0.3s0.3,0.3,0.4,0.4
				c0.1,0.2,0.1,0.3,0.1,0.5c0,0.1,0,0.2,0,0.3s-0.1,0.2-0.1,0.2s-0.1,0.1-0.2,0.2c-0.1,0-0.2,0.1-0.3,0.1c-0.1,0-0.2,0-0.3-0.1
				c-0.1-0.1-0.1-0.2-0.1-0.3s0-0.2-0.1-0.4c0-0.1,0-0.2-0.1-0.4s-0.1-0.2-0.2-0.3s-0.2-0.1-0.4-0.1c-0.1,0-0.3,0-0.4,0.1
				s-0.2,0.2-0.3,0.3c-0.1,0.1-0.2,0.3-0.2,0.5c-0.1,0.2-0.1,0.4-0.1,0.6c0,0.2,0,0.4,0.1,0.6s0.2,0.4,0.3,0.5
				c0.2,0.1,0.3,0.3,0.6,0.4S112,17.7,112.4,17.7L112.4,17.7L112.4,17.7z"/>
		</g>
	</g>
</g>
<g id="Layer_2">
	<g>
		<path d="M8.9,12.2v11.9c0,0.6,0.1,1,0.3,1.2c0.2,0.2,0.5,0.3,0.9,0.3c0.3,0,0.5-0.1,0.8-0.2c0.2-0.2,0.4-0.3,0.6-0.5
			c0.2-0.2,0.4-0.5,0.5-0.8l0.5,0.2c-0.2,0.3-0.4,0.7-0.6,1.1s-0.5,0.8-0.9,1.1c-0.4,0.3-0.8,0.6-1.4,0.9c-0.6,0.2-1.2,0.4-2.1,0.4
			c-0.5,0-0.9-0.1-1.4-0.2c-0.4-0.1-0.8-0.4-1.2-0.7s-0.6-0.7-0.8-1.1c-0.2-0.5-0.3-1-0.3-1.6V12.2H2.1v-1.2c0.3,0,0.7-0.1,1.3-0.2
			s1.1-0.4,1.6-0.8c0.6-0.4,1.1-0.9,1.6-1.5c0.5-0.6,0.8-1.4,1-2.3h1.3v4.7h2.6c0.9,0,1.3-0.1,1.3-0.4c0-0.1-0.1-0.2-0.2-0.2
			c-0.1,0-0.2-0.1-0.4-0.1c-0.1-0.1-0.3-0.1-0.4-0.2c-0.1-0.1-0.2-0.3-0.2-0.5c0-0.3,0.1-0.5,0.3-0.7s0.4-0.3,0.7-0.3
			c0.2,0,0.4,0,0.5,0.1c0.1,0.1,0.3,0.2,0.4,0.3c0.1,0.1,0.2,0.3,0.2,0.5s0.1,0.3,0.1,0.5c0,0.7-0.2,1.3-0.6,1.7s-1,0.6-1.9,0.6H8.9
			z"/>
		<path d="M19.5,12.2c-0.4,0-0.7,0-1,0.1c-0.3,0.1-0.6,0.2-0.8,0.3c-0.2,0.1-0.4,0.3-0.5,0.4c-0.1,0.2-0.2,0.3-0.2,0.4
			c0,0.2,0.1,0.3,0.2,0.3c0.2,0.1,0.4,0.2,0.6,0.2c0.2,0.1,0.4,0.2,0.6,0.4c0.2,0.2,0.2,0.4,0.2,0.8c0,0.2,0,0.4-0.1,0.6
			c-0.1,0.2-0.2,0.4-0.4,0.5s-0.3,0.3-0.5,0.3c-0.2,0.1-0.4,0.1-0.7,0.1c-0.6,0-1.1-0.2-1.5-0.6c-0.4-0.4-0.6-0.9-0.6-1.6
			c0-0.7,0.2-1.2,0.5-1.7c0.3-0.5,0.8-0.8,1.3-1.1c0.6-0.3,1.2-0.5,1.9-0.7c0.7-0.1,1.4-0.2,2.1-0.2c0.8,0,1.6,0.1,2.4,0.3
			s1.4,0.5,2,0.9c0.6,0.4,1.1,0.9,1.4,1.5c0.3,0.6,0.5,1.4,0.5,2.2v9.1c0,0.1,0,0.2,0,0.3c0,0.1,0,0.2,0.1,0.3
			c0,0.1,0.1,0.2,0.2,0.2s0.2,0.1,0.4,0.1c0.2,0,0.4-0.1,0.5-0.2s0.3-0.3,0.4-0.4l0.4,0.3c-0.2,0.2-0.4,0.5-0.6,0.7
			s-0.5,0.5-0.8,0.8c-0.3,0.2-0.7,0.4-1.1,0.6c-0.4,0.2-0.9,0.2-1.5,0.2c-0.7,0-1.3-0.2-1.8-0.6c-0.5-0.4-0.9-1-1-1.9
			c-0.3,0.5-0.7,0.8-1.1,1.2c-0.4,0.3-0.7,0.6-1.1,0.8c-0.4,0.2-0.8,0.3-1.2,0.4c-0.4,0.1-0.8,0.1-1.2,0.1c-0.5,0-1-0.1-1.5-0.2
			c-0.5-0.2-0.9-0.4-1.3-0.8c-0.4-0.3-0.7-0.8-0.9-1.4c-0.2-0.6-0.3-1.2-0.3-2c0-1,0.2-1.8,0.6-2.4c0.4-0.6,0.9-1.1,1.5-1.6
			c0.6-0.4,1.3-0.8,2.1-1.1s1.6-0.6,2.5-0.9c0.6-0.2,1.1-0.6,1.4-1.1c0.3-0.5,0.4-1,0.4-1.5c0-0.8-0.2-1.4-0.7-1.9
			C20.9,12.4,20.3,12.2,19.5,12.2z M22,19.2c0-0.3-0.1-0.5-0.3-0.6c-0.2-0.1-0.4-0.2-0.7-0.2c-0.4,0-0.7,0.1-1.1,0.3
			c-0.3,0.2-0.6,0.4-0.9,0.8c-0.3,0.3-0.5,0.7-0.6,1.2c-0.2,0.5-0.2,1.1-0.2,1.7c0,0.6,0,1.1,0.1,1.5c0.1,0.4,0.2,0.7,0.4,1
			s0.3,0.4,0.5,0.5c0.2,0.1,0.4,0.1,0.6,0.1c0.3,0,0.5-0.1,0.8-0.2s0.5-0.3,0.6-0.6c0.2-0.2,0.3-0.5,0.4-0.8
			c0.1-0.3,0.2-0.6,0.2-0.8V19.2z"/>
		<path d="M40.6,19.5c0-1.3-0.1-2.4-0.2-3.2c-0.1-0.8-0.3-1.4-0.5-1.8c-0.2-0.4-0.4-0.7-0.7-0.8c-0.2-0.1-0.5-0.2-0.8-0.2
			c-0.3,0-0.6,0.1-0.8,0.2c-0.2,0.2-0.5,0.4-0.6,0.6s-0.3,0.4-0.4,0.6c-0.1,0.2-0.2,0.4-0.3,0.5v10.7c0,0.1,0,0.3-0.1,0.5
			c0,0.2-0.1,0.4-0.3,0.6s-0.4,0.3-0.7,0.5c-0.3,0.1-0.8,0.2-1.3,0.2c-0.6,0-1-0.1-1.3-0.2c-0.3-0.1-0.6-0.3-0.7-0.5
			c-0.2-0.2-0.3-0.4-0.3-0.6c0-0.2-0.1-0.3-0.1-0.5V13.7c0-0.3-0.1-0.6-0.2-0.8c-0.1-0.2-0.4-0.3-0.7-0.3c-0.2,0-0.3,0-0.5,0.1
			s-0.3,0.2-0.4,0.3l-0.3-0.4c0.2-0.2,0.5-0.4,0.8-0.6c0.3-0.2,0.6-0.4,1-0.5c0.4-0.1,0.7-0.3,1.1-0.4c0.4-0.1,0.8-0.1,1.3-0.1
			c0.7,0,1.2,0.1,1.6,0.3s0.7,0.5,0.9,0.8c0.2,0.3,0.3,0.7,0.3,1c0,0.3,0.1,0.6,0.1,0.9c0.4-0.6,0.8-1.1,1.4-1.5
			c0.2-0.2,0.4-0.4,0.7-0.6c0.3-0.2,0.5-0.3,0.8-0.5c0.3-0.1,0.6-0.3,0.9-0.3c0.3-0.1,0.6-0.1,1-0.1c0.7,0,1.4,0.1,1.9,0.4
			c0.6,0.3,1,0.7,1.4,1.4c0.4,0.7,0.7,1.5,0.9,2.6c0.2,1.1,0.3,2.4,0.3,4c0,1.6-0.1,2.9-0.4,4c-0.3,1.1-0.6,2.1-1.1,2.9
			c-0.4,0.8-1,1.5-1.5,2s-1.1,0.9-1.7,1.2c-0.6,0.3-1.1,0.5-1.7,0.6c-0.5,0.1-1,0.2-1.4,0.2l-0.2-0.7c0.3-0.1,0.6-0.2,0.9-0.4
			c0.3-0.2,0.5-0.4,0.7-0.7c0.2-0.3,0.4-0.7,0.6-1.2s0.3-1.1,0.4-1.8c0.1-0.7,0.2-1.6,0.3-2.5C40.6,22,40.6,20.8,40.6,19.5z"/>
		<path d="M48.2,17.4c0-1.1,0.2-2,0.6-2.9c0.4-0.8,0.9-1.5,1.5-2.1c0.6-0.6,1.4-1,2.2-1.2c0.8-0.3,1.7-0.4,2.7-0.4
			c0.9,0,1.8,0.1,2.7,0.4c0.8,0.2,1.6,0.6,2.2,1.1c0.2-0.3,0.4-0.6,0.5-1c0.1-0.3,0.2-0.7,0.2-1c0-0.5-0.1-0.8-0.4-1.1
			c-0.2-0.3-0.5-0.4-0.9-0.4V8.4c0.2-0.1,0.4-0.1,0.6-0.2c0.2-0.1,0.3-0.1,0.5-0.1S60.9,8,61.1,8c0.1,0,0.3,0,0.5,0
			c0.5,0,0.9,0.2,1.2,0.5c0.3,0.3,0.4,0.7,0.4,1.3c0,0.3-0.1,0.6-0.2,1s-0.3,0.6-0.6,0.9c-0.2,0.3-0.5,0.6-0.7,0.8
			c-0.3,0.3-0.5,0.5-0.8,0.7c0.5,0.5,0.8,1.1,1,1.8c0.2,0.7,0.4,1.5,0.4,2.3c0,1.1-0.2,2.1-0.6,2.9s-0.9,1.6-1.5,2.1
			c-0.6,0.6-1.4,1-2.2,1.3C57,23.9,56.2,24,55.2,24c-0.5,0-1.1,0-1.6-0.1c-0.5-0.1-1-0.2-1.5-0.4c-0.2,0.1-0.3,0.3-0.4,0.5
			c-0.1,0.2-0.2,0.4-0.2,0.6c0,0.4,0.2,0.7,0.5,0.9c0.3,0.2,0.8,0.3,1.4,0.4s1.2,0.1,1.9,0.2s1.5,0.1,2.2,0.1c0.8,0,1.5,0.1,2.2,0.3
			c0.7,0.1,1.4,0.4,1.9,0.7c0.6,0.3,1,0.7,1.4,1.2c0.3,0.5,0.5,1.2,0.5,2c0,0.6-0.1,1.2-0.4,1.6c-0.3,0.5-0.6,0.9-1,1.3
			c-0.4,0.4-0.9,0.7-1.5,0.9c-0.6,0.3-1.2,0.5-1.8,0.6s-1.3,0.3-1.9,0.4c-0.7,0.1-1.3,0.1-1.9,0.1c-1.1,0-2.1-0.1-2.9-0.2
			c-0.9-0.1-1.6-0.3-2.2-0.5s-1.1-0.5-1.4-0.9s-0.5-0.8-0.5-1.3c0-0.4,0.1-0.7,0.3-1c0.2-0.3,0.4-0.6,0.7-0.9c0.3-0.3,0.6-0.5,1-0.7
			s0.7-0.4,1.1-0.6c-0.5-0.2-1-0.6-1.3-1c-0.4-0.5-0.5-1.1-0.5-1.8c0-0.4,0.1-0.8,0.2-1.1c0.1-0.3,0.3-0.6,0.5-0.9
			c0.2-0.3,0.5-0.5,0.7-0.8c0.3-0.2,0.5-0.4,0.8-0.6c-0.4-0.3-0.8-0.6-1.2-0.9c-0.4-0.4-0.7-0.8-0.9-1.3s-0.5-1-0.6-1.6
			C48.3,18.7,48.2,18.1,48.2,17.4z M59.8,31.7c0-0.3-0.1-0.6-0.4-0.8c-0.3-0.2-0.6-0.4-1.1-0.5c-0.4-0.1-0.9-0.2-1.5-0.3
			c-0.6-0.1-1.1-0.1-1.7-0.2c-0.6,0-1.1-0.1-1.7-0.1s-1-0.1-1.4-0.1c-0.2,0.2-0.4,0.3-0.7,0.5s-0.4,0.4-0.5,0.6s-0.3,0.4-0.4,0.7
			c-0.1,0.2-0.1,0.5-0.1,0.7c0,0.4,0.1,0.7,0.4,1c0.2,0.3,0.6,0.5,1,0.7c0.4,0.2,0.9,0.3,1.4,0.3s1.1,0.1,1.7,0.1
			c0.8,0,1.5-0.1,2.1-0.2c0.6-0.1,1.1-0.3,1.6-0.5s0.8-0.5,1-0.8C59.7,32.3,59.8,32,59.8,31.7z M57.4,17.3c0-0.6,0-1.2-0.1-1.8
			c-0.1-0.6-0.2-1.1-0.3-1.6c-0.2-0.5-0.4-0.8-0.7-1.1c-0.3-0.3-0.6-0.4-1.1-0.4s-0.8,0.1-1.1,0.4c-0.3,0.3-0.5,0.7-0.7,1.2
			c-0.2,0.5-0.3,1-0.3,1.6c-0.1,0.6-0.1,1.2-0.1,1.8c0,0.6,0,1.3,0.1,1.9c0.1,0.6,0.2,1.2,0.3,1.6c0.2,0.5,0.4,0.9,0.7,1.2
			c0.3,0.3,0.6,0.4,1.1,0.4s0.8-0.2,1.1-0.5c0.3-0.3,0.5-0.7,0.7-1.2c0.2-0.5,0.3-1.1,0.3-1.7C57.4,18.6,57.4,17.9,57.4,17.3z"/>
		<path d="M70.7,26.1c0,0.1,0,0.3-0.1,0.5c0,0.2-0.2,0.4-0.3,0.5c-0.2,0.2-0.4,0.3-0.8,0.4s-0.8,0.2-1.4,0.2c-0.6,0-1-0.1-1.3-0.2
			c-0.3-0.1-0.6-0.3-0.7-0.5c-0.2-0.2-0.3-0.4-0.3-0.6c0-0.2-0.1-0.3-0.1-0.5V5.4c0-0.3-0.1-0.6-0.2-0.8s-0.4-0.3-0.7-0.3
			c-0.2,0-0.3,0-0.5,0.1c-0.1,0.1-0.3,0.1-0.4,0.3l-0.3-0.4c0.2-0.2,0.5-0.4,0.8-0.6s0.6-0.4,1-0.5c0.4-0.1,0.7-0.3,1.1-0.4
			c0.4-0.1,0.8-0.1,1.3-0.1c0.7,0,1.2,0.1,1.6,0.3s0.7,0.4,0.9,0.7c0.2,0.3,0.3,0.6,0.3,0.9c0,0.3,0.1,0.6,0.1,0.8V26.1z"/>
		<path d="M78.8,20.2c0,0.3,0.1,0.7,0.2,1.1c0.1,0.4,0.2,0.8,0.4,1.2s0.4,0.8,0.7,1.2c0.3,0.4,0.6,0.7,1,1c0.4,0.3,0.8,0.5,1.2,0.7
			c0.5,0.2,0.9,0.3,1.5,0.3c0.4,0,0.7,0,1-0.1c0.3-0.1,0.6-0.2,0.9-0.4c0.3-0.2,0.5-0.3,0.8-0.5c0.3-0.2,0.5-0.4,0.8-0.6l0.4,0.4
			c-0.2,0.3-0.6,0.7-0.9,1.1s-0.9,0.8-1.4,1.1c-0.5,0.3-1.2,0.6-1.9,0.9c-0.7,0.2-1.6,0.3-2.5,0.3c-0.9,0-1.8-0.2-2.7-0.5
			c-0.9-0.3-1.7-0.8-2.4-1.5c-0.7-0.7-1.2-1.5-1.6-2.5s-0.6-2.2-0.6-3.5c0-1,0.1-1.9,0.4-2.7c0.2-0.8,0.6-1.5,1-2.2
			c0.4-0.7,0.9-1.2,1.5-1.7c0.6-0.5,1.2-0.9,1.8-1.2c0.6-0.3,1.3-0.6,1.9-0.7c0.6-0.2,1.3-0.2,1.9-0.2c0.8,0,1.5,0.1,2.1,0.3
			s1.1,0.4,1.5,0.7c0.4,0.3,0.7,0.6,0.9,1c0.2,0.4,0.3,0.8,0.3,1.2c0,0.5-0.1,1-0.4,1.4c-0.3,0.4-0.7,0.8-1.2,1.1L78.8,20.2z
			 M82.1,16.9c0.1-0.1,0.3-0.2,0.3-0.2c0.1-0.1,0.2-0.2,0.2-0.3s0.1-0.3,0.1-0.4c0-0.2,0-0.4,0-0.6c0-0.3,0-0.6-0.1-0.9
			c-0.1-0.3-0.2-0.6-0.3-0.9c-0.1-0.3-0.3-0.5-0.5-0.7s-0.5-0.3-0.8-0.3c-0.4,0-0.7,0.1-1,0.3c-0.3,0.2-0.5,0.5-0.7,0.9
			S79.1,14.5,79,15c-0.1,0.5-0.2,0.9-0.2,1.4c-0.1,0.5-0.1,0.9-0.1,1.4c0,0.4,0,0.8,0,1.1L82.1,16.9z"/>
		<path d="M95.1,12.1c-0.2,0-0.5,0-0.7,0.1c-0.2,0.1-0.4,0.2-0.6,0.3s-0.3,0.3-0.4,0.5c-0.1,0.2-0.1,0.5-0.1,0.8
			c0,0.4,0.2,0.8,0.5,1.2c0.3,0.4,0.7,0.8,1.1,1.3s0.9,0.9,1.5,1.4c0.5,0.5,1,1,1.5,1.5c0.5,0.5,0.8,1.1,1.1,1.7
			c0.3,0.6,0.5,1.2,0.5,1.9c0,0.8-0.1,1.5-0.4,2.1c-0.3,0.6-0.6,1.1-1.1,1.5c-0.5,0.4-1.1,0.7-1.8,1c-0.7,0.2-1.5,0.3-2.3,0.3
			c-0.7,0-1.4-0.1-2-0.3c-0.6-0.2-1.1-0.5-1.6-0.8c-0.5-0.3-0.9-0.6-1.2-1s-0.6-0.7-0.8-0.9l0.6-0.4c0.1,0.2,0.3,0.3,0.5,0.5
			c0.2,0.2,0.5,0.4,0.7,0.5c0.3,0.2,0.5,0.3,0.8,0.4c0.3,0.1,0.6,0.2,0.9,0.2c0.8,0,1.4-0.2,1.9-0.6c0.5-0.4,0.7-0.9,0.7-1.6
			c0-0.4-0.1-0.8-0.4-1.3c-0.3-0.4-0.6-0.9-1-1.3s-0.8-0.9-1.3-1.4c-0.5-0.5-0.9-1-1.3-1.5c-0.4-0.5-0.7-1.1-1-1.6
			C89.1,16,89,15.5,89,14.9c0-0.7,0.1-1.3,0.4-1.8c0.3-0.5,0.6-0.9,1.1-1.3s1-0.6,1.6-0.7c0.6-0.2,1.2-0.2,1.8-0.2
			c0.7,0,1.4,0.1,2,0.2c0.6,0.1,1.1,0.3,1.5,0.6s0.8,0.6,1,1s0.3,0.9,0.3,1.4c0,0.4-0.1,0.8-0.4,1.1c-0.3,0.3-0.6,0.5-1.1,0.5
			c-0.5,0-0.8-0.1-1.1-0.3s-0.4-0.5-0.4-0.8c0-0.2,0.1-0.4,0.2-0.5c0.1-0.1,0.2-0.2,0.4-0.3c0.1-0.1,0.3-0.2,0.4-0.2
			c0.1-0.1,0.2-0.1,0.2-0.2c0-0.3-0.2-0.5-0.5-0.7S95.6,12.1,95.1,12.1z"/>
	</g>
</g>
<g id="Layer_4_1_">
	<g>
		<path class="st5" d="M112,17.8c-0.4,0-0.8,0-1.2,0.1c-0.3,0.1-0.6,0.3-0.9,0.5c-0.2,0.2-0.4,0.5-0.6,0.9c-0.1,0.4-0.2,0.8-0.2,1.3
			c0,0.2,0,0.4,0,0.6c0,0.2,0.1,0.4,0.1,0.6c0.1,0.2,0.1,0.4,0.2,0.5c0.1,0.2,0.2,0.3,0.3,0.4c0.1,0.1,0.3,0.2,0.5,0.3
			s0.4,0.1,0.6,0.1c0.3,0,0.5-0.1,0.7-0.2c0.2-0.1,0.4-0.3,0.5-0.5c0.1-0.2,0.2-0.5,0.3-0.7s0.1-0.5,0.1-0.8c0-0.2,0-0.4-0.1-0.5
			c0-0.2-0.1-0.3-0.2-0.4c-0.1-0.1-0.2-0.2-0.3-0.3c-0.1-0.1-0.3-0.1-0.4-0.1c-0.2,0-0.3,0-0.4,0.1c-0.1,0.1-0.2,0.1-0.2,0.2
			c0,0.1,0,0.1,0.1,0.1c0.1,0,0.1,0.1,0.2,0.1s0.2,0.1,0.2,0.2c0.1,0.1,0.1,0.2,0.1,0.3c0,0.2-0.1,0.3-0.2,0.4
			c-0.1,0.1-0.3,0.2-0.5,0.2c-0.1,0-0.2,0-0.3-0.1c-0.1-0.1-0.2-0.1-0.2-0.2s-0.1-0.2-0.1-0.3s0-0.2,0-0.3c0-0.3,0.1-0.5,0.2-0.7
			s0.3-0.3,0.5-0.4c0.2-0.1,0.5-0.2,0.7-0.2c0.3-0.1,0.6-0.1,0.8-0.1s0.6-0.1,0.8-0.1c0.3,0,0.5-0.1,0.7-0.2
			c0.2-0.1,0.4-0.2,0.5-0.4s0.2-0.3,0.2-0.6c0-0.1,0-0.2-0.1-0.3s-0.1-0.1-0.2-0.1c-0.1,0-0.2,0-0.2,0c-0.1,0-0.1,0-0.2,0
			c0,0-0.1,0-0.1,0.1c0,0-0.1,0-0.1,0.1c0,0-0.1,0-0.1,0c-0.1,0-0.2,0-0.3-0.1c-0.1-0.1-0.1-0.2-0.1-0.4c0-0.2,0-0.3,0.1-0.5
			c0.1-0.1,0.2-0.2,0.3-0.3c0.1-0.1,0.2-0.1,0.3-0.2s0.2-0.1,0.4-0.1c0.2,0,0.4,0,0.6,0.1c0.2,0.1,0.3,0.2,0.4,0.3
			c0.1,0.1,0.2,0.3,0.3,0.4c0.1,0.2,0.1,0.3,0.1,0.5c0,0.3,0,0.6-0.1,0.8c-0.1,0.2-0.2,0.4-0.4,0.6c-0.2,0.2-0.4,0.3-0.6,0.4
			c-0.2,0.1-0.5,0.2-0.8,0.3c0.1,0.2,0.2,0.3,0.3,0.6c0.1,0.2,0.1,0.5,0.1,0.8c0,0.4-0.1,0.7-0.2,1.1c-0.2,0.4-0.4,0.7-0.7,1
			s-0.7,0.5-1.2,0.7s-1,0.3-1.7,0.3c-0.5,0-1-0.1-1.5-0.2c-0.4-0.1-0.8-0.4-1.2-0.6c-0.3-0.3-0.6-0.6-0.8-1s-0.3-0.9-0.3-1.4
			c0-0.4,0-0.7,0.1-1c0.1-0.3,0.2-0.6,0.4-0.8c0.2-0.2,0.3-0.4,0.6-0.6c0.2-0.2,0.4-0.3,0.6-0.4s0.4-0.2,0.6-0.3s0.4-0.1,0.5-0.1
			c-0.1,0-0.1,0-0.2-0.1c-0.1,0-0.2-0.1-0.3-0.2c-0.1-0.1-0.2-0.1-0.3-0.2c-0.1-0.1-0.2-0.2-0.3-0.3c-0.1-0.1-0.2-0.3-0.2-0.4
			c-0.1-0.2-0.1-0.3-0.1-0.5c0-0.3,0.1-0.6,0.2-0.8c0.1-0.2,0.3-0.4,0.5-0.6c0.2-0.2,0.5-0.3,0.8-0.4s0.6-0.1,1-0.1
			c0.4,0,0.7,0,1,0.1c0.3,0.1,0.5,0.2,0.7,0.3s0.3,0.2,0.4,0.4s0.1,0.3,0.1,0.5c0,0.1,0,0.2,0,0.2c0,0.1-0.1,0.2-0.1,0.2
			c-0.1,0.1-0.1,0.1-0.2,0.2c-0.1,0-0.2,0.1-0.3,0.1c-0.1,0-0.2,0-0.3-0.1c-0.1-0.1-0.1-0.2-0.1-0.3c0-0.1,0-0.2-0.1-0.3
			c0-0.1,0-0.2-0.1-0.3c0-0.1-0.1-0.2-0.2-0.3c-0.1-0.1-0.2-0.1-0.4-0.1c-0.1,0-0.3,0-0.4,0.1c-0.1,0.1-0.2,0.2-0.3,0.3
			c-0.1,0.1-0.2,0.3-0.2,0.5s-0.1,0.4-0.1,0.6c0,0.2,0,0.4,0.1,0.6s0.2,0.3,0.3,0.5s0.3,0.3,0.5,0.4s0.5,0.2,0.8,0.2V17.8z"/>
	</g>
</g>
<g id="Layer_3_1_">
	<g>
		<path d="M130.1,12.2v11.9c0,0.6,0.1,1,0.3,1.2c0.2,0.2,0.5,0.3,0.9,0.3c0.3,0,0.5-0.1,0.8-0.2c0.2-0.2,0.4-0.3,0.6-0.5
			c0.2-0.2,0.4-0.5,0.5-0.8l0.5,0.2c-0.2,0.3-0.4,0.7-0.6,1.1s-0.5,0.8-0.9,1.1c-0.4,0.3-0.8,0.6-1.4,0.9c-0.6,0.2-1.2,0.4-2.1,0.4
			c-0.5,0-0.9-0.1-1.4-0.2c-0.4-0.1-0.8-0.4-1.2-0.7c-0.3-0.3-0.6-0.7-0.8-1.1c-0.2-0.5-0.3-1-0.3-1.6V12.2h-1.8v-1.2
			c0.3,0,0.7-0.1,1.3-0.2c0.5-0.2,1.1-0.4,1.6-0.8c0.6-0.4,1.1-0.9,1.6-1.5s0.8-1.4,1-2.3h1.3v4.7h2.6c0.9,0,1.3-0.1,1.3-0.4
			c0-0.1-0.1-0.2-0.2-0.2c-0.1,0-0.2-0.1-0.4-0.1s-0.3-0.1-0.4-0.2C133,9.9,133,9.7,133,9.5c0-0.3,0.1-0.5,0.3-0.7s0.4-0.3,0.7-0.3
			c0.2,0,0.4,0,0.5,0.1c0.1,0.1,0.3,0.2,0.4,0.3c0.1,0.1,0.2,0.3,0.2,0.5c0,0.2,0.1,0.3,0.1,0.5c0,0.7-0.2,1.3-0.6,1.7
			c-0.4,0.4-1,0.6-1.9,0.6H130.1z"/>
		<path d="M155.6,15.9c0-0.7,0-1.3-0.1-1.8c-0.1-0.5-0.2-0.8-0.3-1.1c-0.1-0.3-0.2-0.6-0.3-0.8c-0.1-0.2-0.1-0.4-0.1-0.6
			c0-0.2,0.1-0.3,0.2-0.4c0.1-0.1,0.3-0.2,0.5-0.3c0.2-0.1,0.4-0.1,0.5-0.2s0.3,0,0.5,0c0.3,0,0.5,0,0.7,0.1
			c0.1,0.1,0.3,0.3,0.3,0.5c0.1,0.3,0.2,0.7,0.2,1.2c0,0.5,0.1,1.1,0.1,1.6c0,0.8,0,1.7-0.1,2.7c-0.1,1-0.2,2-0.5,3
			c-0.2,1-0.5,2-0.8,2.9c-0.3,0.9-0.7,1.8-1.2,2.5c-0.5,0.7-1,1.3-1.6,1.7c-0.6,0.4-1.3,0.7-2,0.7c-0.6,0-1.1-0.1-1.6-0.4
			s-0.9-0.6-1.3-1s-0.7-0.9-1-1.5c-0.3-0.6-0.5-1.2-0.7-1.8c-0.2,0.7-0.5,1.3-0.9,1.8s-0.7,1.1-1.1,1.5c-0.4,0.4-0.8,0.7-1.3,1
			s-1,0.4-1.5,0.4c-0.7,0-1.3-0.1-1.8-0.4c-0.5-0.3-1-0.7-1.4-1.2c-0.4-0.5-0.7-1.1-1-1.8s-0.5-1.4-0.7-2.1
			c-0.2-0.8-0.4-1.5-0.5-2.3c-0.1-0.8-0.3-1.6-0.4-2.3c-0.1-0.7-0.2-1.4-0.2-2.1c-0.1-0.6-0.1-1.2-0.2-1.7c-0.1-0.4-0.2-0.8-0.3-1
			s-0.4-0.4-0.7-0.4c-0.2,0-0.3,0-0.5,0.1c-0.1,0.1-0.3,0.2-0.4,0.3l-0.3-0.4c0.2-0.2,0.5-0.4,0.8-0.6c0.3-0.2,0.6-0.4,1-0.5
			c0.4-0.1,0.7-0.3,1.1-0.4c0.4-0.1,0.8-0.1,1.3-0.1c0.6,0,1.2,0.1,1.6,0.3s0.7,0.5,0.9,0.8s0.4,0.7,0.5,1.1s0.2,0.7,0.2,1
			c0.2,1.6,0.4,3,0.6,4.3c0.2,1.2,0.4,2.3,0.6,3.1c0.2,0.8,0.4,1.5,0.7,1.9c0.3,0.4,0.5,0.6,0.9,0.6c0.2,0,0.4-0.1,0.7-0.3
			c0.2-0.2,0.4-0.5,0.6-0.8c0.2-0.3,0.4-0.8,0.5-1.2c0.2-0.5,0.3-1,0.5-1.6c-0.1-0.6-0.2-1.2-0.3-1.8c-0.1-0.6-0.1-1.1-0.2-1.7
			s-0.1-1-0.2-1.5c-0.1-0.5-0.1-0.9-0.2-1.2c-0.2-1-0.1-1.8,0.3-2.3c0.3-0.5,1-0.8,2.1-0.8c0.5,0,0.8,0,1.2,0.1s0.6,0.2,0.8,0.5
			s0.4,0.5,0.5,0.9s0.2,0.9,0.3,1.5c0.2,1.6,0.4,3,0.6,4.3c0.2,1.3,0.4,2.3,0.6,3.2c0.2,0.9,0.4,1.5,0.7,2c0.3,0.5,0.5,0.7,0.9,0.7
			c0.4,0,0.7-0.2,1-0.7c0.3-0.5,0.6-1,0.8-1.8c0.2-0.7,0.4-1.6,0.5-2.6C155.5,18,155.6,17,155.6,15.9z"/>
		<path d="M165.9,26.1c0,0.1,0,0.3-0.1,0.5s-0.2,0.4-0.3,0.6s-0.4,0.3-0.8,0.5c-0.3,0.1-0.8,0.2-1.4,0.2c-0.6,0-1-0.1-1.3-0.2
			s-0.6-0.3-0.7-0.5c-0.2-0.2-0.3-0.4-0.3-0.6c0-0.2-0.1-0.3-0.1-0.5V13.7c0-0.3-0.1-0.6-0.2-0.8c-0.1-0.2-0.4-0.3-0.7-0.3
			c-0.2,0-0.3,0-0.5,0.1c-0.1,0.1-0.3,0.2-0.4,0.3l-0.3-0.4c0.2-0.2,0.5-0.4,0.8-0.6c0.3-0.2,0.6-0.4,1-0.5c0.4-0.1,0.7-0.3,1.1-0.4
			c0.4-0.1,0.8-0.1,1.3-0.1c0.7,0,1.2,0.1,1.6,0.3c0.4,0.2,0.7,0.4,0.9,0.7c0.2,0.3,0.3,0.6,0.3,0.9c0,0.3,0.1,0.6,0.1,0.8V26.1z
			 M160.4,7.2c0-0.3,0.1-0.6,0.2-0.9c0.1-0.3,0.3-0.5,0.6-0.7s0.5-0.4,0.8-0.5c0.3-0.1,0.7-0.2,1-0.2c0.4,0,0.7,0.1,1,0.2
			c0.3,0.1,0.6,0.3,0.8,0.5s0.4,0.4,0.6,0.7c0.1,0.3,0.2,0.6,0.2,0.9c0,0.3-0.1,0.6-0.2,0.9c-0.1,0.3-0.3,0.5-0.6,0.7
			s-0.5,0.4-0.8,0.5c-0.3,0.1-0.7,0.2-1,0.2c-0.4,0-0.7-0.1-1-0.2c-0.3-0.1-0.6-0.3-0.8-0.5s-0.4-0.4-0.6-0.7
			C160.5,7.8,160.4,7.5,160.4,7.2z"/>
		<path d="M175.1,12.1c-0.2,0-0.5,0-0.7,0.1c-0.2,0.1-0.4,0.2-0.6,0.3c-0.2,0.1-0.3,0.3-0.4,0.5c-0.1,0.2-0.1,0.5-0.1,0.8
			c0,0.4,0.2,0.8,0.5,1.2c0.3,0.4,0.7,0.8,1.1,1.3c0.5,0.4,0.9,0.9,1.5,1.4s1,1,1.5,1.5s0.8,1.1,1.1,1.7c0.3,0.6,0.5,1.2,0.5,1.9
			c0,0.8-0.1,1.5-0.4,2.1c-0.3,0.6-0.6,1.1-1.1,1.5c-0.5,0.4-1.1,0.7-1.8,1s-1.5,0.3-2.3,0.3c-0.7,0-1.4-0.1-2-0.3
			c-0.6-0.2-1.1-0.5-1.6-0.8c-0.5-0.3-0.9-0.6-1.2-1s-0.6-0.7-0.8-0.9l0.6-0.4c0.1,0.2,0.3,0.3,0.5,0.5c0.2,0.2,0.5,0.4,0.7,0.5
			c0.3,0.2,0.5,0.3,0.8,0.4s0.6,0.2,0.9,0.2c0.8,0,1.4-0.2,1.9-0.6c0.5-0.4,0.7-0.9,0.7-1.6c0-0.4-0.1-0.8-0.4-1.3
			c-0.3-0.4-0.6-0.9-1-1.3s-0.8-0.9-1.3-1.4c-0.5-0.5-0.9-1-1.3-1.5c-0.4-0.5-0.7-1.1-1-1.6s-0.4-1.1-0.4-1.7c0-0.7,0.1-1.3,0.4-1.8
			c0.3-0.5,0.6-0.9,1.1-1.3c0.5-0.3,1-0.6,1.6-0.7c0.6-0.2,1.2-0.2,1.8-0.2c0.7,0,1.4,0.1,2,0.2c0.6,0.1,1.1,0.3,1.5,0.6
			c0.4,0.3,0.8,0.6,1,1s0.3,0.9,0.3,1.4c0,0.4-0.1,0.8-0.4,1.1c-0.3,0.3-0.6,0.5-1.1,0.5c-0.5,0-0.8-0.1-1.1-0.3s-0.4-0.5-0.4-0.8
			c0-0.2,0.1-0.4,0.2-0.5c0.1-0.1,0.2-0.2,0.4-0.3c0.1-0.1,0.3-0.2,0.4-0.2c0.1-0.1,0.2-0.1,0.2-0.2c0-0.3-0.2-0.5-0.5-0.7
			S175.6,12.1,175.1,12.1z"/>
		<path d="M187.3,12.2v11.9c0,0.6,0.1,1,0.3,1.2c0.2,0.2,0.5,0.3,0.9,0.3c0.3,0,0.5-0.1,0.8-0.2c0.2-0.2,0.4-0.3,0.6-0.5
			c0.2-0.2,0.4-0.5,0.5-0.8l0.5,0.2c-0.2,0.3-0.4,0.7-0.6,1.1s-0.5,0.8-0.9,1.1c-0.4,0.3-0.8,0.6-1.4,0.9c-0.6,0.2-1.2,0.4-2.1,0.4
			c-0.5,0-0.9-0.1-1.4-0.2c-0.4-0.1-0.8-0.4-1.2-0.7c-0.3-0.3-0.6-0.7-0.8-1.1c-0.2-0.5-0.3-1-0.3-1.6V12.2h-1.8v-1.2
			c0.3,0,0.7-0.1,1.3-0.2c0.5-0.2,1.1-0.4,1.6-0.8c0.6-0.4,1.1-0.9,1.6-1.5s0.8-1.4,1-2.3h1.3v4.7h2.6c0.9,0,1.3-0.1,1.3-0.4
			c0-0.1-0.1-0.2-0.2-0.2c-0.1,0-0.2-0.1-0.4-0.1s-0.3-0.1-0.4-0.2c-0.1-0.1-0.2-0.3-0.2-0.5c0-0.3,0.1-0.5,0.3-0.7s0.4-0.3,0.7-0.3
			c0.2,0,0.4,0,0.5,0.1c0.1,0.1,0.3,0.2,0.4,0.3c0.1,0.1,0.2,0.3,0.2,0.5c0,0.2,0.1,0.3,0.1,0.5c0,0.7-0.2,1.3-0.6,1.7
			c-0.4,0.4-1,0.6-1.9,0.6H187.3z"/>
		<path d="M198.3,12.1c-0.2,0-0.5,0-0.7,0.1c-0.2,0.1-0.4,0.2-0.6,0.3c-0.2,0.1-0.3,0.3-0.4,0.5c-0.1,0.2-0.1,0.5-0.1,0.8
			c0,0.4,0.2,0.8,0.5,1.2c0.3,0.4,0.7,0.8,1.1,1.3c0.5,0.4,0.9,0.9,1.5,1.4s1,1,1.5,1.5s0.8,1.1,1.1,1.7c0.3,0.6,0.5,1.2,0.5,1.9
			c0,0.8-0.1,1.5-0.4,2.1c-0.3,0.6-0.6,1.1-1.1,1.5c-0.5,0.4-1.1,0.7-1.8,1s-1.5,0.3-2.3,0.3c-0.7,0-1.4-0.1-2-0.3
			c-0.6-0.2-1.1-0.5-1.6-0.8c-0.5-0.3-0.9-0.6-1.2-1s-0.6-0.7-0.8-0.9l0.6-0.4c0.1,0.2,0.3,0.3,0.5,0.5c0.2,0.2,0.5,0.4,0.7,0.5
			c0.3,0.2,0.5,0.3,0.8,0.4s0.6,0.2,0.9,0.2c0.8,0,1.4-0.2,1.9-0.6c0.5-0.4,0.7-0.9,0.7-1.6c0-0.4-0.1-0.8-0.4-1.3
			c-0.3-0.4-0.6-0.9-1-1.3s-0.8-0.9-1.3-1.4c-0.5-0.5-0.9-1-1.3-1.5c-0.4-0.5-0.7-1.1-1-1.6s-0.4-1.1-0.4-1.7c0-0.7,0.1-1.3,0.4-1.8
			c0.3-0.5,0.6-0.9,1.1-1.3c0.5-0.3,1-0.6,1.6-0.7c0.6-0.2,1.2-0.2,1.8-0.2c0.7,0,1.4,0.1,2,0.2c0.6,0.1,1.1,0.3,1.5,0.6
			c0.4,0.3,0.8,0.6,1,1s0.3,0.9,0.3,1.4c0,0.4-0.1,0.8-0.4,1.1c-0.3,0.3-0.6,0.5-1.1,0.5c-0.5,0-0.8-0.1-1.1-0.3s-0.4-0.5-0.4-0.8
			c0-0.2,0.1-0.4,0.2-0.5c0.1-0.1,0.2-0.2,0.4-0.3c0.1-0.1,0.3-0.2,0.4-0.2c0.1-0.1,0.2-0.1,0.2-0.2c0-0.3-0.2-0.5-0.5-0.7
			S198.8,12.1,198.3,12.1z"/>
	</g>
</g>
</svg>
