<?xml version="1.0" encoding="utf-8"?>
<!-- Generator: Adobe Illustrator 23.0.0, SVG Export Plug-In . SVG Version: 6.00 Build 0)  -->
<svg version="1.1" id="Layer_1" xmlns="http://www.w3.org/2000/svg" xmlns:xlink="http://www.w3.org/1999/xlink" x="0px" y="0px"
	 viewBox="0 0 205.2 37.5" style="enable-background:new 0 0 205.2 37.5;" xml:space="preserve">
<style type="text/css">
	.st0{fill:#FFFFFF;}
</style>
<g>
	<path class="st0" d="M9.2,13.3v12c0,0.6,0.1,1,0.3,1.2c0.2,0.2,0.5,0.3,0.9,0.3c0.3,0,0.6-0.1,0.8-0.2s0.4-0.3,0.6-0.6
		c0.2-0.2,0.4-0.5,0.5-0.8l0.5,0.2c-0.2,0.3-0.4,0.7-0.6,1.1c-0.2,0.4-0.5,0.8-0.9,1.1c-0.4,0.4-0.8,0.6-1.4,0.9
		c-0.6,0.2-1.3,0.4-2.1,0.4c-0.5,0-0.9-0.1-1.4-0.2c-0.4-0.1-0.8-0.4-1.2-0.7c-0.3-0.3-0.6-0.7-0.8-1.1s-0.3-1-0.3-1.6V13.3H2.3
		v-1.2c0.3,0,0.7-0.1,1.3-0.2c0.5-0.2,1.1-0.4,1.7-0.8s1.1-0.9,1.6-1.5s0.8-1.4,1-2.3h1.3v4.8h2.7c0.9,0,1.3-0.1,1.3-0.4
		c0-0.1-0.1-0.2-0.2-0.2c-0.1,0-0.2-0.1-0.4-0.1c-0.1-0.1-0.3-0.1-0.4-0.3c-0.1-0.1-0.2-0.3-0.2-0.5c0-0.3,0.1-0.5,0.3-0.7
		c0.2-0.2,0.4-0.3,0.7-0.3c0.2,0,0.4,0,0.5,0.1S13.9,9.9,14,10s0.2,0.3,0.2,0.5c0,0.2,0.1,0.3,0.1,0.5c0,0.7-0.2,1.3-0.6,1.7
		c-0.4,0.4-1.1,0.6-2,0.6H9.2z"/>
	<path class="st0" d="M19.9,13.3c-0.4,0-0.7,0-1,0.1c-0.3,0.1-0.6,0.2-0.8,0.3c-0.2,0.1-0.4,0.3-0.5,0.4c-0.1,0.2-0.2,0.3-0.2,0.4
		c0,0.2,0.1,0.3,0.3,0.4c0.2,0.1,0.4,0.2,0.6,0.2c0.2,0.1,0.4,0.2,0.6,0.4c0.2,0.2,0.3,0.4,0.3,0.8c0,0.2,0,0.4-0.1,0.6
		c-0.1,0.2-0.2,0.4-0.4,0.5c-0.2,0.1-0.3,0.3-0.6,0.3c-0.2,0.1-0.4,0.1-0.7,0.1c-0.6,0-1.1-0.2-1.5-0.6s-0.6-1-0.6-1.6
		c0-0.7,0.2-1.2,0.5-1.7c0.3-0.5,0.8-0.9,1.4-1.2c0.6-0.3,1.2-0.5,1.9-0.7c0.7-0.1,1.4-0.2,2.1-0.2c0.8,0,1.7,0.1,2.4,0.3
		c0.8,0.2,1.5,0.5,2,0.9c0.6,0.4,1.1,0.9,1.4,1.5c0.4,0.6,0.5,1.4,0.5,2.2v9.2c0,0.1,0,0.2,0,0.3c0,0.1,0,0.2,0.1,0.3
		s0.1,0.2,0.2,0.2c0.1,0.1,0.2,0.1,0.4,0.1c0.2,0,0.4-0.1,0.5-0.2s0.3-0.3,0.4-0.4l0.4,0.3c-0.2,0.2-0.4,0.5-0.6,0.7
		c-0.2,0.3-0.5,0.5-0.8,0.8c-0.3,0.2-0.7,0.4-1.1,0.6c-0.4,0.2-0.9,0.2-1.5,0.2c-0.7,0-1.3-0.2-1.8-0.6c-0.5-0.4-0.9-1-1-1.9
		c-0.3,0.5-0.7,0.9-1.1,1.2c-0.4,0.3-0.8,0.6-1.1,0.8c-0.4,0.2-0.8,0.3-1.2,0.4c-0.4,0.1-0.8,0.1-1.2,0.1c-0.5,0-1-0.1-1.5-0.2
		c-0.5-0.2-0.9-0.4-1.3-0.8s-0.7-0.8-0.9-1.4s-0.3-1.3-0.3-2.1c0-1,0.2-1.8,0.6-2.4c0.4-0.6,0.9-1.2,1.5-1.6s1.4-0.8,2.2-1.1
		c0.8-0.3,1.6-0.6,2.5-1c0.6-0.2,1.1-0.6,1.4-1.1c0.3-0.5,0.4-1,0.4-1.5c0-0.8-0.2-1.4-0.7-1.9S20.7,13.3,19.9,13.3z M22.5,20.4
		c0-0.3-0.1-0.5-0.3-0.6c-0.2-0.1-0.4-0.2-0.7-0.2c-0.4,0-0.7,0.1-1.1,0.3c-0.3,0.2-0.6,0.4-0.9,0.8c-0.3,0.3-0.5,0.8-0.6,1.2
		c-0.2,0.5-0.2,1.1-0.2,1.7c0,0.6,0,1.2,0.1,1.6c0.1,0.4,0.2,0.7,0.4,1c0.2,0.2,0.3,0.4,0.5,0.5c0.2,0.1,0.4,0.1,0.7,0.1
		c0.3,0,0.5-0.1,0.8-0.2c0.3-0.1,0.5-0.3,0.7-0.6c0.2-0.2,0.3-0.5,0.4-0.8c0.1-0.3,0.2-0.6,0.2-0.8V20.4z"/>
	<path class="st0" d="M41.3,20.7c0-1.4-0.1-2.5-0.2-3.3c-0.1-0.8-0.3-1.4-0.5-1.9c-0.2-0.4-0.4-0.7-0.7-0.8
		c-0.3-0.1-0.5-0.2-0.8-0.2c-0.3,0-0.6,0.1-0.8,0.3c-0.2,0.2-0.5,0.4-0.6,0.6s-0.3,0.4-0.5,0.7c-0.1,0.2-0.2,0.4-0.3,0.5v10.9
		c0,0.1,0,0.3-0.1,0.5c0,0.2-0.1,0.4-0.3,0.6c-0.2,0.2-0.4,0.3-0.7,0.5s-0.8,0.2-1.4,0.2s-1-0.1-1.4-0.2c-0.3-0.1-0.6-0.3-0.8-0.5
		C32.2,28.2,32,28,32,27.8c0-0.2-0.1-0.4-0.1-0.5V14.8c0-0.3-0.1-0.6-0.2-0.8c-0.1-0.2-0.4-0.4-0.7-0.4c-0.2,0-0.3,0-0.5,0.1
		c-0.1,0.1-0.3,0.2-0.4,0.3l-0.3-0.4c0.2-0.2,0.5-0.4,0.8-0.6c0.3-0.2,0.6-0.4,1-0.5c0.4-0.2,0.7-0.3,1.2-0.4s0.8-0.1,1.3-0.1
		c0.7,0,1.3,0.1,1.6,0.4c0.4,0.2,0.7,0.5,0.9,0.8c0.2,0.3,0.3,0.7,0.3,1s0.1,0.6,0.1,0.9c0.4-0.6,0.9-1.1,1.4-1.5
		c0.2-0.2,0.4-0.4,0.7-0.6c0.3-0.2,0.5-0.4,0.8-0.5s0.6-0.3,0.9-0.4c0.3-0.1,0.6-0.1,1-0.1c0.7,0,1.4,0.1,2,0.4s1,0.8,1.4,1.4
		c0.4,0.7,0.7,1.5,0.9,2.6c0.2,1.1,0.3,2.4,0.3,4.1c0,1.6-0.1,2.9-0.4,4.1s-0.7,2.1-1.1,3c-0.5,0.8-1,1.5-1.5,2
		c-0.6,0.5-1.2,0.9-1.7,1.2c-0.6,0.3-1.1,0.5-1.7,0.6c-0.5,0.1-1,0.2-1.4,0.2l-0.2-0.7c0.3-0.1,0.6-0.2,0.9-0.4
		c0.3-0.2,0.5-0.4,0.8-0.7c0.2-0.3,0.4-0.7,0.6-1.2c0.2-0.5,0.3-1.1,0.4-1.8c0.1-0.7,0.2-1.6,0.3-2.6S41.3,22.1,41.3,20.7z"/>
	<path class="st0" d="M49,18.6c0-1.1,0.2-2.1,0.6-2.9c0.4-0.8,0.9-1.5,1.6-2.1c0.7-0.6,1.4-1,2.3-1.3s1.8-0.4,2.7-0.4
		s1.8,0.1,2.7,0.4c0.8,0.2,1.6,0.6,2.2,1.2c0.2-0.3,0.4-0.6,0.5-1c0.1-0.3,0.2-0.7,0.2-1c0-0.5-0.1-0.8-0.4-1.1s-0.6-0.4-0.9-0.4
		V9.5c0.2-0.1,0.5-0.1,0.6-0.2c0.2-0.1,0.4-0.1,0.5-0.1c0.2,0,0.3-0.1,0.5-0.1c0.2,0,0.3,0,0.5,0c0.5,0,0.9,0.2,1.2,0.5
		s0.4,0.7,0.4,1.3c0,0.3-0.1,0.6-0.2,1c-0.2,0.3-0.3,0.6-0.6,0.9c-0.2,0.3-0.5,0.6-0.8,0.8c-0.3,0.3-0.5,0.5-0.8,0.7
		c0.5,0.5,0.8,1.1,1.1,1.8c0.2,0.7,0.4,1.5,0.4,2.4c0,1.1-0.2,2.1-0.6,3c-0.4,0.9-0.9,1.6-1.6,2.2c-0.7,0.6-1.4,1-2.3,1.3
		c-0.9,0.3-1.8,0.4-2.7,0.4c-0.6,0-1.1,0-1.6-0.1s-1-0.2-1.5-0.4c-0.2,0.1-0.3,0.3-0.4,0.5s-0.2,0.4-0.2,0.7c0,0.4,0.2,0.7,0.5,0.9
		c0.3,0.2,0.8,0.3,1.4,0.4s1.2,0.1,2,0.2s1.5,0.1,2.2,0.1s1.5,0.1,2.2,0.3s1.4,0.4,2,0.7s1,0.7,1.4,1.3c0.3,0.5,0.5,1.2,0.5,2.1
		c0,0.6-0.1,1.2-0.4,1.7c-0.3,0.5-0.6,0.9-1,1.3c-0.4,0.4-1,0.7-1.5,1c-0.6,0.3-1.2,0.5-1.8,0.7c-0.6,0.2-1.3,0.3-2,0.4
		s-1.3,0.1-1.9,0.1c-1.1,0-2.1-0.1-3-0.2c-0.9-0.1-1.6-0.3-2.3-0.5c-0.6-0.2-1.1-0.5-1.4-0.9c-0.3-0.4-0.5-0.8-0.5-1.4
		c0-0.4,0.1-0.7,0.3-1c0.2-0.3,0.4-0.6,0.7-0.9c0.3-0.3,0.6-0.5,1-0.7c0.4-0.2,0.7-0.4,1.1-0.6c-0.5-0.2-1-0.6-1.4-1
		c-0.4-0.5-0.5-1.1-0.5-1.8c0-0.4,0.1-0.8,0.2-1.1s0.3-0.7,0.5-0.9c0.2-0.3,0.5-0.5,0.7-0.8s0.5-0.4,0.8-0.6c-0.4-0.3-0.9-0.6-1.2-1
		c-0.4-0.4-0.7-0.8-1-1.3c-0.3-0.5-0.5-1-0.6-1.6C49.1,19.9,49,19.3,49,18.6z M60.8,33c0-0.3-0.1-0.6-0.4-0.9
		c-0.3-0.2-0.6-0.4-1.1-0.5c-0.4-0.1-0.9-0.2-1.5-0.3c-0.6-0.1-1.1-0.1-1.7-0.2s-1.1-0.1-1.7-0.1c-0.5,0-1-0.1-1.4-0.1
		c-0.2,0.2-0.4,0.3-0.7,0.5c-0.2,0.2-0.4,0.4-0.6,0.6c-0.2,0.2-0.3,0.4-0.4,0.7s-0.1,0.5-0.1,0.7c0,0.4,0.1,0.8,0.4,1
		c0.2,0.3,0.6,0.5,1,0.7c0.4,0.2,0.9,0.3,1.4,0.3c0.5,0.1,1.1,0.1,1.7,0.1c0.8,0,1.5-0.1,2.1-0.2s1.2-0.3,1.6-0.6s0.8-0.5,1-0.8
		C60.6,33.7,60.8,33.4,60.8,33z M58.3,18.5c0-0.6,0-1.2-0.1-1.8C58.1,16,58,15.5,57.8,15c-0.2-0.5-0.4-0.8-0.7-1.1s-0.6-0.4-1.1-0.4
		c-0.4,0-0.8,0.1-1.1,0.4c-0.3,0.3-0.5,0.7-0.7,1.2c-0.2,0.5-0.3,1-0.3,1.6s-0.1,1.2-0.1,1.9c0,0.6,0,1.3,0.1,1.9
		c0.1,0.6,0.2,1.2,0.3,1.7c0.2,0.5,0.4,0.9,0.7,1.2c0.3,0.3,0.6,0.4,1.1,0.4c0.4,0,0.8-0.2,1.1-0.5c0.3-0.3,0.5-0.7,0.7-1.2
		c0.2-0.5,0.3-1.1,0.3-1.7C58.2,19.7,58.3,19.1,58.3,18.5z"/>
	<path class="st0" d="M71.7,27.4c0,0.1,0,0.3-0.1,0.5s-0.2,0.4-0.3,0.6c-0.2,0.2-0.4,0.3-0.8,0.4c-0.3,0.1-0.8,0.2-1.4,0.2
		s-1-0.1-1.4-0.2c-0.3-0.1-0.6-0.3-0.7-0.5c-0.2-0.2-0.3-0.4-0.3-0.6s-0.1-0.4-0.1-0.5v-21c0-0.3-0.1-0.6-0.2-0.8
		c-0.1-0.2-0.4-0.4-0.7-0.4c-0.2,0-0.3,0-0.5,0.1c-0.1,0.1-0.3,0.1-0.4,0.3l-0.3-0.4C64.8,5,65,4.8,65.3,4.6c0.3-0.2,0.6-0.4,1-0.5
		c0.4-0.2,0.8-0.3,1.2-0.4c0.4-0.1,0.8-0.1,1.3-0.1c0.7,0,1.3,0.1,1.6,0.3s0.7,0.4,0.9,0.7c0.2,0.3,0.3,0.6,0.3,0.9
		c0,0.3,0.1,0.6,0.1,0.8V27.4z"/>
	<path class="st0" d="M80,21.4c0,0.3,0.1,0.7,0.2,1.1c0.1,0.4,0.3,0.8,0.4,1.2c0.2,0.4,0.4,0.8,0.7,1.2c0.3,0.4,0.6,0.7,1,1
		c0.4,0.3,0.8,0.5,1.2,0.7c0.5,0.2,1,0.3,1.5,0.3c0.4,0,0.7,0,1.1-0.1s0.6-0.2,0.9-0.4c0.3-0.2,0.6-0.3,0.8-0.5
		c0.3-0.2,0.5-0.4,0.8-0.6l0.4,0.4c-0.3,0.3-0.6,0.7-1,1.1c-0.4,0.4-0.9,0.8-1.4,1.1c-0.6,0.4-1.2,0.6-1.9,0.9
		c-0.7,0.2-1.6,0.3-2.5,0.3s-1.9-0.2-2.8-0.5c-0.9-0.3-1.7-0.9-2.4-1.5c-0.7-0.7-1.3-1.5-1.7-2.6c-0.4-1-0.6-2.2-0.6-3.6
		c0-1,0.1-1.9,0.4-2.7c0.2-0.8,0.6-1.6,1-2.2s0.9-1.2,1.5-1.7c0.6-0.5,1.2-0.9,1.8-1.2c0.6-0.3,1.3-0.6,1.9-0.7
		c0.7-0.2,1.3-0.3,1.9-0.3c0.8,0,1.5,0.1,2.1,0.3c0.6,0.2,1.1,0.4,1.5,0.7c0.4,0.3,0.7,0.6,0.9,1s0.3,0.8,0.3,1.2
		c0,0.5-0.1,1-0.4,1.4c-0.3,0.4-0.7,0.8-1.2,1.1L80,21.4z M83.3,18.1c0.1-0.1,0.3-0.2,0.4-0.3c0.1-0.1,0.2-0.2,0.2-0.3
		s0.1-0.3,0.1-0.4c0-0.2,0-0.4,0-0.6c0-0.3,0-0.6-0.1-0.9s-0.2-0.6-0.3-0.9c-0.1-0.3-0.3-0.5-0.5-0.7c-0.2-0.2-0.5-0.3-0.8-0.3
		c-0.4,0-0.7,0.1-1,0.4s-0.5,0.5-0.7,0.9c-0.2,0.4-0.3,0.8-0.4,1.3S80,17.1,80,17.5c-0.1,0.5-0.1,0.9-0.1,1.4c0,0.4,0,0.8,0,1.1
		L83.3,18.1z"/>
	<path class="st0" d="M96.5,13.2c-0.3,0-0.5,0-0.7,0.1c-0.2,0.1-0.4,0.2-0.6,0.3c-0.2,0.1-0.3,0.3-0.4,0.6c-0.1,0.2-0.1,0.5-0.1,0.8
		c0,0.4,0.2,0.8,0.5,1.3c0.3,0.4,0.7,0.9,1.2,1.3c0.5,0.5,1,0.9,1.5,1.4c0.5,0.5,1,1,1.5,1.5c0.5,0.5,0.8,1.1,1.2,1.7
		c0.3,0.6,0.5,1.3,0.5,2c0,0.8-0.1,1.5-0.4,2.1c-0.3,0.6-0.6,1.1-1.1,1.5c-0.5,0.4-1.1,0.7-1.8,1s-1.5,0.3-2.3,0.3
		c-0.7,0-1.4-0.1-2-0.3c-0.6-0.2-1.1-0.5-1.6-0.8c-0.5-0.3-0.9-0.6-1.2-1s-0.6-0.7-0.8-0.9l0.6-0.4c0.1,0.2,0.3,0.3,0.5,0.5
		c0.2,0.2,0.5,0.4,0.7,0.5c0.3,0.2,0.6,0.3,0.9,0.4c0.3,0.1,0.6,0.2,0.9,0.2c0.8,0,1.4-0.2,1.9-0.6c0.5-0.4,0.7-0.9,0.7-1.7
		c0-0.4-0.1-0.8-0.4-1.3c-0.3-0.4-0.6-0.9-1-1.4c-0.4-0.5-0.9-0.9-1.3-1.4c-0.5-0.5-0.9-1-1.3-1.5s-0.8-1.1-1-1.6s-0.4-1.2-0.4-1.8
		c0-0.7,0.1-1.3,0.4-1.8s0.6-0.9,1.1-1.3s1-0.6,1.6-0.8c0.6-0.2,1.2-0.3,1.8-0.3c0.7,0,1.4,0.1,2,0.2c0.6,0.1,1.1,0.3,1.5,0.6
		s0.8,0.6,1,1c0.2,0.4,0.4,0.9,0.4,1.4c0,0.4-0.1,0.8-0.4,1.1s-0.7,0.5-1.1,0.5c-0.5,0-0.8-0.1-1.1-0.3s-0.4-0.5-0.4-0.8
		c0-0.2,0.1-0.4,0.2-0.5c0.1-0.1,0.2-0.2,0.4-0.3c0.1-0.1,0.3-0.2,0.4-0.2c0.1-0.1,0.2-0.1,0.2-0.2c0-0.3-0.2-0.5-0.5-0.7
		C97.4,13.3,97,13.2,96.5,13.2z"/>
</g>
<g>
	<path class="st0" d="M130.2,13.3v12.1c0,0.6,0.1,1,0.3,1.2c0.2,0.2,0.5,0.3,0.9,0.3c0.3,0,0.6-0.1,0.8-0.2s0.4-0.3,0.6-0.6
		c0.2-0.2,0.4-0.5,0.5-0.8l0.5,0.2c-0.2,0.3-0.4,0.7-0.6,1.1c-0.2,0.4-0.5,0.8-0.9,1.2s-0.8,0.7-1.4,0.9s-1.3,0.4-2.1,0.4
		c-0.5,0-0.9-0.1-1.4-0.2c-0.4-0.1-0.8-0.4-1.2-0.7s-0.6-0.7-0.8-1.1c-0.2-0.5-0.3-1-0.3-1.6V13.3h-1.8v-1.2c0.3,0,0.7-0.1,1.3-0.2
		c0.5-0.2,1.1-0.4,1.7-0.8c0.6-0.4,1.1-0.9,1.6-1.5s0.8-1.4,1-2.3h1.3v4.8h2.7c0.9,0,1.3-0.1,1.3-0.4c0-0.1-0.1-0.2-0.2-0.2
		c-0.1,0-0.2-0.1-0.4-0.1c-0.1-0.1-0.3-0.1-0.4-0.3c-0.1-0.1-0.2-0.3-0.2-0.5c0-0.3,0.1-0.5,0.3-0.7c0.2-0.2,0.4-0.3,0.7-0.3
		c0.2,0,0.4,0,0.5,0.1c0.1,0.1,0.3,0.2,0.4,0.3c0.1,0.1,0.2,0.3,0.2,0.5c0,0.2,0.1,0.3,0.1,0.5c0,0.7-0.2,1.3-0.6,1.7
		c-0.4,0.4-1.1,0.6-2,0.6H130.2z"/>
	<path class="st0" d="M156,17.1c0-0.7,0-1.3-0.1-1.8c-0.1-0.5-0.2-0.9-0.3-1.2c-0.1-0.3-0.2-0.6-0.3-0.8c-0.1-0.2-0.1-0.4-0.1-0.6
		c0-0.2,0.1-0.3,0.2-0.4c0.1-0.1,0.3-0.2,0.5-0.3s0.4-0.1,0.6-0.2s0.3,0,0.5,0c0.3,0,0.5,0,0.7,0.1c0.1,0.1,0.3,0.3,0.3,0.5
		c0.1,0.3,0.2,0.7,0.2,1.2c0,0.5,0.1,1.1,0.1,1.7c0,0.8,0,1.8-0.1,2.8c-0.1,1-0.3,2-0.5,3c-0.2,1-0.5,2-0.8,2.9s-0.7,1.8-1.2,2.5
		s-1,1.3-1.6,1.8c-0.6,0.4-1.3,0.7-2.1,0.7c-0.6,0-1.2-0.1-1.6-0.4s-0.9-0.6-1.3-1s-0.7-0.9-1-1.5c-0.3-0.6-0.5-1.2-0.8-1.8
		c-0.3,0.7-0.5,1.3-0.9,1.9c-0.3,0.6-0.7,1.1-1.1,1.5c-0.4,0.4-0.8,0.8-1.3,1c-0.5,0.2-1,0.4-1.6,0.4c-0.7,0-1.3-0.2-1.8-0.4
		c-0.5-0.3-1-0.7-1.4-1.2c-0.4-0.5-0.8-1.1-1-1.8c-0.3-0.7-0.5-1.4-0.8-2.2c-0.2-0.8-0.4-1.5-0.5-2.4s-0.3-1.6-0.4-2.3
		c-0.1-0.8-0.2-1.5-0.2-2.1c-0.1-0.7-0.1-1.2-0.2-1.7c-0.1-0.4-0.2-0.8-0.3-1c-0.1-0.2-0.4-0.4-0.7-0.4c-0.2,0-0.3,0-0.5,0.1
		s-0.3,0.2-0.4,0.3l-0.3-0.4c0.3-0.2,0.5-0.4,0.8-0.6c0.3-0.2,0.6-0.4,1-0.5c0.4-0.2,0.7-0.3,1.2-0.4s0.8-0.1,1.3-0.1
		c0.7,0,1.2,0.1,1.6,0.3c0.4,0.2,0.7,0.5,1,0.8c0.2,0.3,0.4,0.7,0.5,1.1c0.1,0.4,0.2,0.7,0.2,1c0.2,1.6,0.4,3.1,0.6,4.3
		s0.4,2.3,0.6,3.1s0.5,1.5,0.7,1.9c0.3,0.4,0.6,0.6,0.9,0.6c0.2,0,0.5-0.1,0.7-0.3c0.2-0.2,0.4-0.5,0.6-0.8c0.2-0.3,0.4-0.8,0.6-1.3
		c0.2-0.5,0.3-1,0.5-1.6c-0.1-0.6-0.2-1.2-0.3-1.8c-0.1-0.6-0.1-1.2-0.2-1.7c-0.1-0.5-0.1-1-0.2-1.5c-0.1-0.5-0.1-0.9-0.2-1.2
		c-0.2-1-0.1-1.8,0.3-2.3c0.4-0.5,1.1-0.8,2.1-0.8c0.5,0,0.9,0,1.2,0.1c0.3,0.1,0.6,0.2,0.8,0.5c0.2,0.2,0.4,0.5,0.5,0.9
		c0.1,0.4,0.2,0.9,0.3,1.5c0.2,1.6,0.4,3.1,0.6,4.4c0.2,1.3,0.4,2.4,0.6,3.2s0.5,1.6,0.7,2s0.6,0.7,0.9,0.7c0.4,0,0.7-0.2,1-0.7
		s0.6-1.1,0.8-1.8c0.2-0.8,0.4-1.6,0.5-2.6C156,19.1,156,18.1,156,17.1z"/>
	<path class="st0" d="M166.5,27.4c0,0.1,0,0.3-0.1,0.5c0,0.2-0.2,0.4-0.3,0.6s-0.4,0.3-0.8,0.5c-0.3,0.1-0.8,0.2-1.4,0.2
		s-1-0.1-1.4-0.2c-0.3-0.1-0.6-0.3-0.7-0.5c-0.2-0.2-0.3-0.4-0.3-0.6s-0.1-0.4-0.1-0.5V14.8c0-0.3-0.1-0.6-0.2-0.8
		c-0.1-0.2-0.4-0.4-0.7-0.4c-0.2,0-0.3,0-0.5,0.1c-0.1,0.1-0.3,0.2-0.4,0.3l-0.3-0.4c0.3-0.2,0.5-0.4,0.8-0.6c0.3-0.2,0.6-0.4,1-0.5
		c0.4-0.2,0.7-0.3,1.2-0.4c0.4-0.1,0.8-0.1,1.3-0.1c0.7,0,1.3,0.1,1.6,0.3c0.4,0.2,0.7,0.4,0.9,0.7c0.2,0.3,0.3,0.6,0.3,0.9
		s0.1,0.6,0.1,0.8V27.4z M161,8.2c0-0.3,0.1-0.6,0.2-0.9c0.1-0.3,0.3-0.5,0.6-0.7c0.2-0.2,0.5-0.4,0.8-0.5c0.3-0.1,0.7-0.2,1.1-0.2
		c0.4,0,0.7,0.1,1,0.2c0.3,0.1,0.6,0.3,0.8,0.5c0.2,0.2,0.4,0.4,0.6,0.7c0.1,0.3,0.2,0.6,0.2,0.9c0,0.3-0.1,0.6-0.2,0.9
		c-0.1,0.3-0.3,0.5-0.6,0.7c-0.2,0.2-0.5,0.4-0.8,0.5s-0.7,0.2-1,0.2c-0.4,0-0.7-0.1-1.1-0.2s-0.6-0.3-0.8-0.5
		c-0.2-0.2-0.4-0.4-0.6-0.7C161,8.8,161,8.5,161,8.2z"/>
	<path class="st0" d="M175.8,13.2c-0.3,0-0.5,0-0.7,0.1c-0.2,0.1-0.4,0.2-0.6,0.3s-0.3,0.3-0.4,0.6S174,14.7,174,15
		c0,0.4,0.2,0.8,0.5,1.3c0.3,0.4,0.7,0.9,1.2,1.3c0.5,0.5,1,0.9,1.5,1.4s1,1,1.5,1.5c0.5,0.5,0.8,1.1,1.2,1.7c0.3,0.6,0.5,1.3,0.5,2
		c0,0.8-0.1,1.5-0.4,2.1s-0.6,1.1-1.1,1.6c-0.5,0.4-1.1,0.7-1.8,1c-0.7,0.2-1.5,0.3-2.3,0.3c-0.8,0-1.4-0.1-2-0.3
		c-0.6-0.2-1.2-0.5-1.6-0.8c-0.5-0.3-0.9-0.6-1.2-1c-0.3-0.3-0.6-0.7-0.8-0.9l0.6-0.4c0.1,0.2,0.3,0.3,0.5,0.5
		c0.2,0.2,0.5,0.4,0.7,0.5s0.6,0.3,0.9,0.4s0.6,0.2,0.9,0.2c0.8,0,1.4-0.2,1.9-0.6c0.5-0.4,0.8-0.9,0.8-1.7c0-0.4-0.1-0.8-0.4-1.3
		c-0.3-0.4-0.6-0.9-1-1.4c-0.4-0.5-0.9-1-1.3-1.5c-0.5-0.5-0.9-1-1.3-1.6c-0.4-0.5-0.8-1.1-1-1.6c-0.3-0.6-0.4-1.2-0.4-1.8
		c0-0.7,0.1-1.3,0.4-1.8c0.3-0.5,0.6-0.9,1.1-1.3s1-0.6,1.6-0.8c0.6-0.2,1.2-0.3,1.8-0.3c0.7,0,1.4,0.1,2,0.2
		c0.6,0.1,1.1,0.3,1.5,0.6c0.4,0.3,0.8,0.6,1,1c0.2,0.4,0.4,0.9,0.4,1.4c0,0.4-0.1,0.8-0.4,1.1c-0.3,0.3-0.7,0.5-1.1,0.5
		c-0.5,0-0.8-0.1-1.1-0.3c-0.2-0.2-0.4-0.5-0.4-0.8c0-0.2,0.1-0.4,0.2-0.5c0.1-0.1,0.2-0.2,0.4-0.3s0.3-0.2,0.4-0.2
		c0.1-0.1,0.2-0.1,0.2-0.2c0-0.3-0.2-0.5-0.5-0.7C176.8,13.3,176.3,13.2,175.8,13.2z"/>
	<path class="st0" d="M188.2,13.3v12.1c0,0.6,0.1,1,0.3,1.2c0.2,0.2,0.5,0.3,0.9,0.3c0.3,0,0.6-0.1,0.8-0.2s0.4-0.3,0.6-0.6
		c0.2-0.2,0.4-0.5,0.5-0.8l0.5,0.2c-0.2,0.3-0.4,0.7-0.6,1.1c-0.2,0.4-0.5,0.8-0.9,1.2s-0.8,0.7-1.4,0.9s-1.3,0.4-2.1,0.4
		c-0.5,0-0.9-0.1-1.4-0.2c-0.4-0.1-0.8-0.4-1.2-0.7s-0.6-0.7-0.8-1.1c-0.2-0.5-0.3-1-0.3-1.6V13.3h-1.8v-1.2c0.3,0,0.7-0.1,1.3-0.2
		c0.5-0.2,1.1-0.4,1.7-0.8c0.6-0.4,1.1-0.9,1.6-1.5s0.8-1.4,1-2.3h1.3v4.8h2.7c0.9,0,1.3-0.1,1.3-0.4c0-0.1-0.1-0.2-0.2-0.2
		c-0.1,0-0.2-0.1-0.4-0.1c-0.1-0.1-0.3-0.1-0.4-0.3c-0.1-0.1-0.2-0.3-0.2-0.5c0-0.3,0.1-0.5,0.3-0.7c0.2-0.2,0.4-0.3,0.7-0.3
		c0.2,0,0.4,0,0.5,0.1c0.1,0.1,0.3,0.2,0.4,0.3c0.1,0.1,0.2,0.3,0.2,0.5c0,0.2,0.1,0.3,0.1,0.5c0,0.7-0.2,1.3-0.6,1.7
		c-0.4,0.4-1.1,0.6-2,0.6H188.2z"/>
	<path class="st0" d="M199.5,13.2c-0.3,0-0.5,0-0.7,0.1c-0.2,0.1-0.4,0.2-0.6,0.3s-0.3,0.3-0.4,0.6s-0.1,0.5-0.1,0.8
		c0,0.4,0.2,0.8,0.5,1.3c0.3,0.4,0.7,0.9,1.2,1.3c0.5,0.5,1,0.9,1.5,1.4s1,1,1.5,1.5c0.5,0.5,0.8,1.1,1.2,1.7c0.3,0.6,0.5,1.3,0.5,2
		c0,0.8-0.1,1.5-0.4,2.1s-0.6,1.1-1.1,1.6c-0.5,0.4-1.1,0.7-1.8,1c-0.7,0.2-1.5,0.3-2.3,0.3c-0.8,0-1.4-0.1-2-0.3
		c-0.6-0.2-1.2-0.5-1.6-0.8c-0.5-0.3-0.9-0.6-1.2-1c-0.3-0.3-0.6-0.7-0.8-0.9l0.6-0.4c0.1,0.2,0.3,0.3,0.5,0.5
		c0.2,0.2,0.5,0.4,0.7,0.5s0.6,0.3,0.9,0.4s0.6,0.2,0.9,0.2c0.8,0,1.4-0.2,1.9-0.6c0.5-0.4,0.8-0.9,0.8-1.7c0-0.4-0.1-0.8-0.4-1.3
		c-0.3-0.4-0.6-0.9-1-1.4c-0.4-0.5-0.9-1-1.3-1.5c-0.5-0.5-0.9-1-1.3-1.6c-0.4-0.5-0.8-1.1-1-1.6c-0.3-0.6-0.4-1.2-0.4-1.8
		c0-0.7,0.1-1.3,0.4-1.8c0.3-0.5,0.6-0.9,1.1-1.3s1-0.6,1.6-0.8c0.6-0.2,1.2-0.3,1.8-0.3c0.7,0,1.4,0.1,2,0.2
		c0.6,0.1,1.1,0.3,1.5,0.6c0.4,0.3,0.8,0.6,1,1c0.2,0.4,0.4,0.9,0.4,1.4c0,0.4-0.1,0.8-0.4,1.1c-0.3,0.3-0.7,0.5-1.1,0.5
		c-0.5,0-0.8-0.1-1.1-0.3c-0.2-0.2-0.4-0.5-0.4-0.8c0-0.2,0.1-0.4,0.2-0.5c0.1-0.1,0.2-0.2,0.4-0.3s0.3-0.2,0.4-0.2
		c0.1-0.1,0.2-0.1,0.2-0.2c0-0.3-0.2-0.5-0.5-0.7C200.4,13.3,200,13.2,199.5,13.2z"/>
</g>
<g>
	<path class="st0" d="M113,18.7c-0.4,0-0.8,0-1.2,0.1c-0.4,0.1-0.7,0.3-0.9,0.5c-0.3,0.2-0.4,0.5-0.6,0.9c-0.1,0.4-0.2,0.8-0.2,1.3
		c0,0.2,0,0.4,0,0.6c0,0.2,0.1,0.4,0.1,0.6c0.1,0.2,0.1,0.4,0.2,0.6s0.2,0.3,0.3,0.5s0.3,0.2,0.5,0.3c0.2,0.1,0.4,0.1,0.6,0.1
		c0.3,0,0.5-0.1,0.7-0.2c0.2-0.1,0.4-0.3,0.5-0.5c0.1-0.2,0.2-0.5,0.3-0.7c0.1-0.3,0.1-0.5,0.1-0.8c0-0.2,0-0.4-0.1-0.5
		c0-0.2-0.1-0.3-0.2-0.4c-0.1-0.1-0.2-0.2-0.3-0.3c-0.1-0.1-0.3-0.1-0.4-0.1c-0.2,0-0.3,0-0.4,0.1c-0.1,0.1-0.2,0.1-0.2,0.3
		c0,0.1,0,0.1,0.1,0.1c0.1,0,0.1,0.1,0.2,0.1c0.1,0,0.2,0.1,0.2,0.2c0.1,0.1,0.1,0.2,0.1,0.3c0,0.2-0.1,0.3-0.2,0.4
		c-0.1,0.1-0.3,0.2-0.5,0.2c-0.1,0-0.2,0-0.3-0.1c-0.1-0.1-0.2-0.1-0.2-0.2c-0.1-0.1-0.1-0.2-0.1-0.3c0-0.1,0-0.2,0-0.3
		c0-0.3,0.1-0.5,0.2-0.7c0.1-0.2,0.3-0.3,0.5-0.4c0.2-0.1,0.5-0.2,0.8-0.2c0.3-0.1,0.6-0.1,0.9-0.1s0.6-0.1,0.9-0.1
		c0.3,0,0.5-0.1,0.8-0.2c0.2-0.1,0.4-0.2,0.5-0.4s0.2-0.4,0.2-0.6c0-0.1,0-0.2-0.1-0.3c-0.1-0.1-0.1-0.1-0.2-0.1c-0.1,0-0.2,0-0.3,0
		c-0.1,0-0.1,0-0.2,0s-0.1,0-0.1,0.1c0,0-0.1,0-0.1,0.1s-0.1,0-0.2,0c-0.1,0-0.2,0-0.3-0.1c-0.1-0.1-0.1-0.2-0.1-0.4
		c0-0.2,0-0.3,0.1-0.5s0.2-0.2,0.3-0.3s0.2-0.1,0.3-0.2c0.1,0,0.2-0.1,0.4-0.1c0.2,0,0.4,0,0.6,0.1c0.2,0.1,0.3,0.2,0.4,0.3
		c0.1,0.1,0.2,0.3,0.3,0.4s0.1,0.3,0.1,0.5c0,0.3,0,0.6-0.1,0.9s-0.2,0.5-0.4,0.6s-0.4,0.3-0.6,0.4c-0.2,0.1-0.5,0.2-0.8,0.3
		c0.1,0.2,0.3,0.4,0.3,0.6s0.1,0.5,0.1,0.9c0,0.4-0.1,0.7-0.2,1.1c-0.2,0.4-0.4,0.7-0.7,1s-0.7,0.5-1.2,0.7
		c-0.5,0.2-1.1,0.3-1.7,0.3c-0.5,0-1.1-0.1-1.5-0.2c-0.5-0.1-0.9-0.4-1.2-0.6c-0.3-0.3-0.6-0.6-0.8-1s-0.3-0.9-0.3-1.4
		c0-0.4,0-0.7,0.2-1s0.2-0.6,0.4-0.8c0.2-0.2,0.4-0.4,0.6-0.6c0.2-0.2,0.4-0.3,0.6-0.4s0.4-0.2,0.6-0.3s0.4-0.1,0.6-0.1
		c-0.1,0-0.1,0-0.3-0.1c-0.1,0-0.2-0.1-0.3-0.2c-0.1-0.1-0.2-0.1-0.4-0.2s-0.2-0.2-0.3-0.3c-0.1-0.1-0.2-0.3-0.2-0.4
		s-0.1-0.4-0.1-0.6c0-0.3,0.1-0.6,0.2-0.8s0.3-0.4,0.5-0.6s0.5-0.3,0.8-0.4c0.3-0.1,0.6-0.1,1-0.1c0.4,0,0.8,0,1.1,0.1
		s0.5,0.2,0.7,0.3c0.2,0.1,0.3,0.3,0.4,0.4c0.1,0.2,0.1,0.3,0.1,0.5c0,0.1,0,0.2,0,0.3c0,0.1-0.1,0.2-0.1,0.2s-0.1,0.1-0.2,0.2
		c-0.1,0-0.2,0.1-0.3,0.1c-0.1,0-0.2,0-0.3-0.1c-0.1-0.1-0.1-0.2-0.1-0.3s0-0.2-0.1-0.4c0-0.1,0-0.2-0.1-0.4s-0.1-0.2-0.2-0.3
		c-0.1-0.1-0.2-0.1-0.4-0.1c-0.1,0-0.3,0-0.4,0.1s-0.2,0.2-0.3,0.3c-0.1,0.1-0.2,0.3-0.2,0.5c-0.1,0.2-0.1,0.4-0.1,0.6
		c0,0.2,0,0.4,0.1,0.6s0.2,0.4,0.3,0.5c0.2,0.1,0.3,0.3,0.6,0.4s0.5,0.2,0.8,0.2V18.7z"/>
</g>
</svg>
